<svg width="25" height="25" viewBox="0 0 25 25" fill="none" xmlns="http://www.w3.org/2000/svg">
<g clip-path="url(#clip0_135_652)">
<path fill-rule="evenodd" clip-rule="evenodd" d="M17.9688 1.94693C19.2688 0.61099 22.5203 2.95005 17.9688 5.9563C13.4172 2.95005 16.6687 0.61099 17.9688 1.94693ZM14.0625 7.81255C14.0625 9.05575 13.5686 10.248 12.6896 11.1271C11.8105 12.0062 10.6182 12.5001 9.375 12.5001C8.1318 12.5001 6.93951 12.0062 6.06044 11.1271C5.18136 10.248 4.6875 9.05575 4.6875 7.81255C4.6875 6.56935 5.18136 5.37707 6.06044 4.49799C6.93951 3.61891 8.1318 3.12505 9.375 3.12505C10.6182 3.12505 11.8105 3.61891 12.6896 4.49799C13.5686 5.37707 14.0625 6.56935 14.0625 7.81255ZM0 20.3126C0 21.8751 1.5625 21.8751 1.5625 21.8751H17.1875C17.1875 21.8751 18.75 21.8751 18.75 20.3126C18.75 18.7501 17.1875 14.0626 9.375 14.0626C1.5625 14.0626 0 18.7501 0 20.3126ZM21.0938 7.67193C23.2609 5.44536 28.6797 9.3438 21.0938 14.3547C13.5094 9.3438 18.9266 5.4438 21.0938 7.67193ZM23.4375 3.38286C24.3047 2.49224 26.4719 4.05161 23.4375 6.0563C20.4031 4.05161 22.5703 2.49068 23.4375 3.38286Z" fill="#FFC700"/>
</g>
<defs>
<clipPath id="clip0_135_652">
<rect width="25" height="25" fill="white"/>
</clipPath>
</defs>
</svg>
