<svg width="130" height="156" viewBox="0 0 130 156" fill="none" xmlns="http://www.w3.org/2000/svg">
<path d="M66.7974 103.602H3.46542L0 3.1196H63.332L66.7974 103.602Z" fill="#6097CE"/>
<path d="M69.9595 100.483H6.62755L3.15767 0H66.4897L69.9595 100.483Z" fill="#6097CE"/>
<path opacity="0.3" d="M69.9595 100.483H6.62755L3.15767 0H66.4897L69.9595 100.483Z" fill="white"/>
<path d="M48.7401 41.3485C55.5211 34.5433 55.2326 23.4155 48.0957 16.494C40.9587 9.57247 29.676 9.47822 22.8949 16.2835C16.1138 23.0887 16.4023 34.2165 23.5393 41.138C30.6762 48.0595 41.959 48.1538 48.7401 41.3485Z" fill="#6097CE"/>
<path d="M50.5229 28.82C50.6141 31.2143 50.0845 33.592 48.9842 35.728C47.7966 38.0299 45.9824 39.9598 43.7451 41.3012C41.5078 42.6427 38.9358 43.3426 36.3178 43.3224C33.6382 43.3081 31.0096 42.5989 28.6956 41.266C26.3816 39.933 24.4636 38.0231 23.134 35.728C21.8943 33.6248 21.2017 31.2515 21.1181 28.82C21.0358 26.9346 21.343 25.0524 22.0208 23.2878C22.6987 21.5231 23.7331 19.9129 25.0613 18.5548C26.3895 17.1968 27.9837 16.1193 29.747 15.3879C31.5103 14.6564 33.4059 14.2863 35.3187 14.3C39.2593 14.3275 43.0376 15.8515 45.869 18.5554C48.7003 21.2594 50.367 24.9354 50.5229 28.82Z" fill="white"/>
<path opacity="0.6" d="M48.9753 35.728C47.7877 38.0299 45.9735 39.9598 43.7362 41.3013C41.4988 42.6427 38.9269 43.3426 36.3089 43.3224C33.6293 43.3081 31.0007 42.5989 28.6867 41.266C26.3727 39.933 24.4547 38.0232 23.1251 35.728C26.897 33.191 31.3602 31.8424 35.9253 31.8604C40.5639 31.8703 45.099 33.2143 48.9753 35.728Z" fill="#6097CE"/>
<path opacity="0.6" d="M40.3995 28.4582C42.893 25.9558 42.7869 21.864 40.1626 19.3189C37.5383 16.7738 33.3895 16.7392 30.896 19.2415C28.4026 21.7439 28.5086 25.8357 31.133 28.3808C33.7573 30.9259 37.9061 30.9605 40.3995 28.4582Z" fill="#6097CE"/>
<path d="M57.2352 64.0948H16.8365L16.5644 56.1748H56.9631L57.2352 64.0948Z" fill="white"/>
<path d="M57.7258 78.2496H17.3226L17.0506 70.3296H57.4537L57.7258 78.2496Z" fill="white"/>
<path d="M42.1336 71.4208L32.3974 72.7408C32.3045 72.7512 32.2148 72.7805 32.134 72.8268C32.0531 72.8731 31.9828 72.9354 31.9275 73.0098C31.8722 73.0842 31.8331 73.169 31.8127 73.259C31.7922 73.349 31.7909 73.4422 31.8087 73.5328L33.0887 79.97C33.1306 80.1589 33.2426 80.3255 33.4028 80.4371C33.5629 80.5486 33.7595 80.597 33.954 80.5728L43.6902 79.2528C43.7828 79.2412 43.8721 79.211 43.9525 79.164C44.0329 79.117 44.1026 79.0543 44.1574 78.9796C44.2121 78.9049 44.2508 78.82 44.2709 78.73C44.2911 78.64 44.2923 78.5468 44.2744 78.4564L42.9989 72.0192C42.9569 71.8306 42.8447 71.6644 42.6845 71.5536C42.5242 71.4427 42.3276 71.3953 42.1336 71.4208ZM39.3372 77.9416L37.5532 78.1748L37.3793 76.098C37.1954 76.0196 37.0334 75.8987 36.9069 75.7455C36.7804 75.5923 36.693 75.4114 36.6523 75.218C36.6195 75.0681 36.619 74.9131 36.6507 74.7631C36.6825 74.613 36.7458 74.4712 36.8366 74.3468C36.9274 74.2223 37.0436 74.1181 37.1778 74.0408C37.312 73.9635 37.4612 73.9148 37.6156 73.898C37.9324 73.8578 38.253 73.9362 38.5139 74.1179C38.7749 74.2996 38.9573 74.5712 39.025 74.8792C39.0636 75.0651 39.0518 75.2579 38.9907 75.4379C38.9297 75.6179 38.8215 75.7788 38.6771 75.9044L39.3372 77.9416Z" fill="#6097CE"/>
<path d="M41.1703 71.0732C40.9981 71.0948 40.824 71.0522 40.6821 70.9537C40.5402 70.8552 40.4407 70.708 40.4031 70.5408L40.2783 69.9116C40.1 69.053 39.6122 68.2873 38.9052 67.7565C38.1982 67.2257 37.3201 66.9659 36.4337 67.0252C35.9865 67.0504 35.5499 67.1702 35.1537 67.3766C34.7575 67.5829 34.411 67.871 34.1377 68.2212C33.8644 68.5714 33.6706 68.9756 33.5697 69.4062C33.4687 69.8368 33.4629 70.2838 33.5526 70.7168L33.6953 71.4428C33.7119 71.5233 33.7113 71.6063 33.6936 71.6865C33.6758 71.7667 33.6412 71.8424 33.5921 71.9086C33.543 71.9749 33.4804 72.0303 33.4083 72.0713C33.3362 72.1124 33.2562 72.1381 33.1735 72.1468C33.001 72.1706 32.8259 72.1288 32.6835 72.0299C32.5411 71.9311 32.442 71.7826 32.4064 71.6144L32.2859 71.0028C32.1635 70.4312 32.1594 69.8411 32.274 69.2679C32.3886 68.6948 32.6195 68.1503 32.9527 67.6674C33.286 67.1845 33.7148 66.773 34.2134 66.4578C34.712 66.1425 35.27 65.9299 35.8539 65.8328C37.1201 65.6231 38.4195 65.9023 39.4825 66.6127C40.5455 67.323 41.2905 68.4098 41.5627 69.6476L41.7055 70.3692C41.7221 70.4507 41.7211 70.5347 41.7025 70.6157C41.684 70.6968 41.6483 70.7731 41.5977 70.8395C41.5472 70.906 41.483 70.9612 41.4093 71.0015C41.3357 71.0417 41.2542 71.0662 41.1703 71.0732Z" fill="#6097CE"/>
<path d="M51.0581 89.342H24.7575L24.5835 84.1852H50.8797L51.0581 89.342Z" fill="#6097CE"/>
<path d="M38.3694 60.1348C38.3772 60.3229 38.3463 60.5106 38.2784 60.6865C38.2106 60.8624 38.1072 61.023 37.9746 61.1583C37.842 61.2937 37.6829 61.401 37.5069 61.4739C37.331 61.5468 37.1419 61.5837 36.9511 61.5824C36.5578 61.5793 36.1808 61.4275 35.8978 61.1581C35.6147 60.8887 35.4474 60.5224 35.4302 60.1348C35.4224 59.9467 35.4533 59.759 35.5212 59.583C35.5891 59.4071 35.6924 59.2466 35.825 59.1112C35.9577 58.9759 36.1167 58.8685 36.2927 58.7956C36.4686 58.7227 36.6577 58.6858 36.8485 58.6872C37.2421 58.6891 37.6198 58.8406 37.903 59.1103C38.1863 59.3799 38.3533 59.7468 38.3694 60.1348Z" fill="#263238"/>
<path d="M32.0273 60.1348C32.0358 60.323 32.0053 60.511 31.9376 60.6872C31.87 60.8634 31.7667 61.0242 31.6339 61.1597C31.5012 61.2952 31.3418 61.4025 31.1656 61.4752C30.9894 61.5479 30.8 61.5843 30.609 61.5824C30.2162 61.5793 29.8396 61.4273 29.5573 61.1578C29.275 60.8883 29.1086 60.522 29.0926 60.1348C29.0847 59.9467 29.1157 59.759 29.1835 59.583C29.2514 59.4071 29.3548 59.2466 29.4874 59.1112C29.62 58.9759 29.7791 58.8685 29.955 58.7956C30.1309 58.7227 30.3201 58.6858 30.5109 58.6872C30.904 58.6892 31.2812 58.8408 31.5637 59.1105C31.8463 59.3803 32.0123 59.7472 32.0273 60.1348Z" fill="#263238"/>
<path d="M25.7253 60.1348C25.7331 60.3229 25.7022 60.5106 25.6343 60.6865C25.5665 60.8624 25.4631 61.023 25.3305 61.1583C25.1979 61.2937 25.0388 61.401 24.8628 61.4739C24.6869 61.5468 24.4978 61.5837 24.307 61.5824C23.9138 61.5804 23.5367 61.4287 23.2541 61.159C22.9716 60.8893 22.8055 60.5224 22.7906 60.1348C22.7827 59.9467 22.8137 59.759 22.8815 59.583C22.9494 59.4071 23.0528 59.2466 23.1854 59.1112C23.318 58.9759 23.4771 58.8685 23.653 58.7956C23.829 58.7227 24.0181 58.6858 24.2089 58.6872C24.602 58.6892 24.9792 58.8408 25.2617 59.1105C25.5443 59.3803 25.7103 59.7472 25.7253 60.1348Z" fill="#263238"/>
<path d="M44.6892 60.1348C44.697 60.3229 44.6661 60.5106 44.5982 60.6865C44.5304 60.8625 44.427 61.023 44.2944 61.1583C44.1618 61.2937 44.0027 61.4011 43.8268 61.4739C43.6508 61.5468 43.4617 61.5837 43.2709 61.5824C42.8778 61.5804 42.5006 61.4287 42.218 61.159C41.9355 60.8893 41.7694 60.5224 41.7545 60.1348C41.7478 59.9472 41.7799 59.7603 41.8486 59.5854C41.9173 59.4104 42.0214 59.251 42.1544 59.1169C42.2874 58.9828 42.4467 58.8767 42.6225 58.8051C42.7983 58.7335 42.9871 58.6979 43.1772 58.7004C43.5674 58.7033 43.9416 58.8537 44.2228 59.1205C44.504 59.3873 44.6709 59.7503 44.6892 60.1348Z" fill="#263238"/>
<path d="M51.009 60.1348C51.0175 60.323 50.987 60.511 50.9194 60.6872C50.8518 60.8634 50.7484 61.0242 50.6157 61.1597C50.4829 61.2952 50.3236 61.4025 50.1473 61.4752C49.9711 61.5479 49.7817 61.5843 49.5907 61.5824C49.1979 61.5793 48.8214 61.4273 48.5391 61.1578C48.2568 60.8883 48.0904 60.522 48.0743 60.1348C48.0665 59.9467 48.0974 59.759 48.1653 59.583C48.2331 59.4071 48.3365 59.2466 48.4691 59.1112C48.6017 58.9759 48.7608 58.8685 48.9368 58.7956C49.1127 58.7227 49.3018 58.6858 49.4926 58.6872C49.8858 58.6892 50.2629 58.8408 50.5455 59.1105C50.828 59.3803 50.9941 59.7472 51.009 60.1348Z" fill="#263238"/>
<path d="M115.685 48.8181C116.278 49.7597 116.773 50.6573 117.281 51.5945C117.79 52.5317 118.249 53.4733 118.7 54.4369C119.619 56.388 120.379 58.4081 120.974 60.4781C121.055 60.7377 121.113 61.0149 121.18 61.2833L121.278 61.6925L121.327 61.8949L121.385 62.2293C121.485 62.9878 121.438 63.7584 121.246 64.4997C120.939 65.6506 120.47 66.7538 119.855 67.7777C118.754 69.6384 117.424 71.3572 115.894 72.8949L114.017 71.4957C114.959 69.7864 115.798 68.0233 116.528 66.2157C116.853 65.4192 117.082 64.5878 117.21 63.7385C117.251 63.4791 117.239 63.2143 117.174 62.9597L116.996 62.4229C116.925 62.2029 116.858 61.9829 116.773 61.7585C116.095 59.9433 115.31 58.1685 114.423 56.4433C113.531 54.6833 112.572 52.9233 111.613 51.2425L115.685 48.8181Z" fill="#FF8B7B"/>
<path d="M114.494 70.884L112.442 71.9532L114.797 74.6724C114.797 74.6724 116.269 73.6912 116.336 72.1952L114.494 70.884Z" fill="#FF8B7B"/>
<path d="M109.691 73.6296L112.21 75.6052L114.797 74.6724L112.442 71.9532L109.691 73.6296Z" fill="#FF8B7B"/>
<path d="M101.074 34.4213C101.025 34.6677 100.851 34.8393 100.69 34.8085C100.53 34.7777 100.436 34.5489 100.485 34.3069C100.534 34.0649 100.708 33.8669 100.873 33.9197C101.038 33.9725 101.123 34.1749 101.074 34.4213Z" fill="#263238"/>
<path d="M100.873 34.8436C100.424 35.5328 99.8807 36.1576 99.2586 36.7004C99.4055 36.8506 99.5836 36.9677 99.7807 37.0437C99.9778 37.1196 100.189 37.1526 100.4 37.1404L100.873 34.8436Z" fill="#FF5652"/>
<path d="M100.07 43.4764V40.59L103.942 41.03C103.942 41.03 103.879 43.5116 101.712 44.242L100.07 43.4764Z" fill="#FF8B7B"/>
<path d="M101.185 38.5132L103.91 39.2876L103.959 41.052L100.088 40.59L101.185 38.5132Z" fill="#FF8B7B"/>
<path opacity="0.2" d="M103.91 39.2876L101.185 38.5132L100.655 39.5164C100.684 40.3069 100.934 41.074 101.378 41.7327C101.822 42.3913 102.442 42.9157 103.17 43.2476C103.638 42.6024 103.912 41.8398 103.959 41.0476L103.91 39.2876Z" fill="black"/>
<path d="M102.26 33.2464C102.289 33.2457 102.317 33.237 102.34 33.2213C102.364 33.2056 102.383 33.1836 102.395 33.1579C102.406 33.1321 102.41 33.1036 102.406 33.0757C102.402 33.0478 102.39 33.0215 102.372 33C102.215 32.8255 102.018 32.6905 101.798 32.6063C101.578 32.5221 101.34 32.4912 101.105 32.516C101.067 32.5225 101.032 32.5437 101.01 32.5751C100.987 32.6064 100.978 32.6453 100.985 32.6832C100.991 32.7214 101.013 32.7556 101.044 32.7786C101.076 32.8016 101.115 32.8115 101.154 32.8064C101.34 32.7884 101.528 32.8146 101.702 32.8827C101.876 32.9508 102.03 33.0589 102.153 33.198C102.167 33.2127 102.183 33.2246 102.202 33.2329C102.22 33.2412 102.24 33.2458 102.26 33.2464Z" fill="#263238"/>
<path d="M107.96 38.874C107.514 41.14 107.238 44.2772 108.852 45.7864C108.852 45.7864 108.228 48.0832 103.946 48.0832C99.2587 48.0832 101.694 46.068 101.694 46.068C103.643 45.4696 103.625 43.2828 103.179 41.5228L107.96 38.874Z" fill="#FF8B7B"/>
<path d="M109.722 47.3C110.141 46.7192 110.123 44.8756 109.677 44.55C108.959 44.0264 105.877 43.9032 101.734 44.8448C102.18 46.6312 101.221 47.564 101.221 47.564L109.722 47.3Z" fill="#6097CE"/>
<path d="M123.664 151.76C123.536 151.805 123.402 151.824 123.267 151.816C123.132 151.808 123 151.775 122.879 151.716C122.833 151.674 122.801 151.619 122.788 151.558C122.776 151.498 122.782 151.434 122.807 151.378C122.821 151.33 122.846 151.286 122.879 151.249C122.912 151.212 122.953 151.182 122.999 151.162C123.423 150.96 124.395 151.351 124.44 151.369C124.453 151.374 124.464 151.383 124.472 151.395C124.48 151.407 124.485 151.421 124.484 151.435C124.484 151.449 124.481 151.463 124.474 151.475C124.467 151.487 124.456 151.498 124.444 151.505C124.193 151.614 123.931 151.7 123.664 151.76ZM123.151 151.263C123.121 151.27 123.093 151.28 123.066 151.294C123.038 151.304 123.013 151.32 122.993 151.342C122.973 151.363 122.958 151.389 122.95 151.417C122.91 151.549 122.95 151.593 122.977 151.606C123.146 151.747 123.771 151.606 124.212 151.444C123.876 151.307 123.514 151.245 123.151 151.263Z" fill="#6097CE"/>
<path d="M124.426 151.51H124.391C124.034 151.408 123.276 150.876 123.267 150.528C123.266 150.473 123.285 150.419 123.32 150.376C123.355 150.333 123.404 150.303 123.459 150.291C123.511 150.271 123.568 150.264 123.624 150.268C123.681 150.273 123.735 150.289 123.784 150.317C124.203 150.528 124.471 151.382 124.48 151.422C124.486 151.432 124.489 151.444 124.489 151.457C124.489 151.469 124.486 151.481 124.48 151.492C124.473 151.499 124.465 151.504 124.455 151.507C124.446 151.51 124.436 151.511 124.426 151.51ZM123.534 150.414H123.499C123.41 150.445 123.41 150.489 123.41 150.511C123.41 150.718 123.918 151.136 124.302 151.303C124.208 151.056 124.003 150.568 123.731 150.423C123.67 150.396 123.602 150.393 123.539 150.414H123.534Z" fill="#6097CE"/>
<path d="M100.499 152.28C100.097 152.28 99.7091 152.222 99.5798 152.046C99.546 152 99.5278 151.943 99.5278 151.886C99.5278 151.828 99.546 151.772 99.5798 151.725C99.6052 151.682 99.6393 151.645 99.68 151.615C99.7206 151.586 99.767 151.565 99.8161 151.554C100.338 151.413 101.435 152.029 101.48 152.055C101.493 152.062 101.504 152.073 101.511 152.086C101.517 152.1 101.519 152.115 101.515 152.13C101.514 152.145 101.507 152.159 101.497 152.17C101.486 152.181 101.473 152.189 101.457 152.192C101.141 152.249 100.82 152.278 100.499 152.28ZM100.003 151.677C99.9562 151.669 99.908 151.669 99.8607 151.677C99.8305 151.683 99.8019 151.695 99.7766 151.712C99.7513 151.73 99.7299 151.752 99.7136 151.778C99.66 151.87 99.6823 151.914 99.7136 151.941C99.8607 152.143 100.65 152.148 101.234 152.064C100.853 151.858 100.435 151.727 100.003 151.677Z" fill="#6097CE"/>
<path d="M101.453 152.192H101.422C101.043 152.024 100.293 151.356 100.351 151.004C100.351 150.92 100.423 150.819 100.628 150.801C100.701 150.793 100.775 150.799 100.846 150.82C100.917 150.842 100.982 150.877 101.038 150.924C101.324 151.262 101.496 151.679 101.529 152.117C101.529 152.129 101.526 152.142 101.52 152.153C101.515 152.165 101.507 152.175 101.498 152.183C101.484 152.19 101.468 152.193 101.453 152.192ZM100.686 150.938H100.641C100.507 150.938 100.499 150.999 100.499 151.017C100.463 151.228 100.971 151.756 101.359 151.985C101.325 151.632 101.18 151.298 100.945 151.03C100.871 150.968 100.778 150.936 100.681 150.938H100.686Z" fill="#6097CE"/>
<path d="M104.896 152.121H101.761L101.449 144.954H104.584L104.896 152.121Z" fill="#FF8B7B"/>
<path d="M127.923 150.687L124.859 151.342L121.777 144.668L124.846 144.012L127.923 150.687Z" fill="#FF8B7B"/>
<path d="M124.56 151.039L128.008 150.304C128.068 150.291 128.131 150.299 128.186 150.327C128.241 150.354 128.285 150.399 128.311 150.454L129.506 153.014C129.538 153.076 129.555 153.145 129.554 153.215C129.554 153.284 129.537 153.352 129.505 153.414C129.473 153.476 129.426 153.53 129.369 153.57C129.312 153.611 129.246 153.637 129.176 153.648C127.972 153.881 127.37 153.938 125.858 154.26C124.926 154.462 122.821 154.968 121.532 155.241C120.243 155.514 119.801 154.295 120.305 154.07C122.558 153.054 123.494 152.161 124.105 151.329C124.216 151.181 124.378 151.077 124.56 151.039Z" fill="#263238"/>
<path d="M101.783 151.76H105.208C105.27 151.761 105.331 151.782 105.379 151.82C105.428 151.859 105.462 151.912 105.476 151.972L106.096 154.722C106.114 154.788 106.116 154.858 106.102 154.925C106.088 154.993 106.058 155.056 106.015 155.11C105.971 155.164 105.916 155.207 105.852 155.236C105.789 155.265 105.72 155.278 105.65 155.276C104.414 155.254 102.63 155.184 101.078 155.184C99.2586 155.184 97.6932 155.28 95.5613 155.28C94.2724 155.28 93.9156 153.996 94.4552 153.877C96.9082 153.349 98.9152 153.292 101.034 152.002C101.256 151.855 101.515 151.772 101.783 151.76Z" fill="#263238"/>
<path d="M114.463 46.4948C117.402 47.1592 119.815 54.5644 119.815 54.5644L113.941 58.9952C112.416 57.387 111.341 55.4162 110.819 53.2752C109.78 49.3944 111.457 45.8084 114.463 46.4948Z" fill="#6097CE"/>
<path opacity="0.4" d="M114.463 46.4948C117.402 47.1592 119.815 54.5644 119.815 54.5644L113.941 58.9952C112.416 57.387 111.341 55.4162 110.819 53.2752C109.78 49.3944 111.457 45.8084 114.463 46.4948Z" fill="black"/>
<path d="M99 55.3256C98.2685 56.1044 97.5371 56.7996 96.77 57.5256C96.3909 57.8776 96.0073 58.2296 95.6148 58.5684L95.0216 59.0832L94.8745 59.2108L94.6202 59.4132C94.3586 59.6195 94.0688 59.7883 93.7595 59.9148C93.4152 60.059 93.0452 60.1338 92.6712 60.1348C92.3517 60.1362 92.0345 60.081 91.7346 59.972C91.4021 59.8471 91.0987 59.657 90.8426 59.4132C90.5159 59.0982 90.2764 58.7059 90.1469 58.2736C90.0791 58.0605 90.0357 57.8406 90.0175 57.618C89.9942 57.3575 89.9942 57.0954 90.0175 56.8348C90.0398 56.6236 90.0666 56.4388 90.1023 56.2672C90.2243 55.6673 90.3974 55.0785 90.6196 54.5072C90.8203 53.9642 91.0511 53.4325 91.3109 52.9144C91.5964 52.3556 91.8684 51.9464 92.1405 51.48C93.2455 49.6942 94.5065 48.007 95.9092 46.4376C97.2977 44.8776 98.8279 43.446 100.481 42.1608L102.122 43.8284C100.971 45.3508 99.8384 46.9832 98.7903 48.5892C97.7472 50.1861 96.7943 51.8386 95.936 53.5392C95.7442 53.9528 95.4899 54.4192 95.3695 54.7536C95.21 55.1421 95.0715 55.5386 94.9547 55.9416C94.8424 56.3045 94.7574 56.6751 94.7005 57.0504C94.6975 57.1091 94.6975 57.1678 94.7005 57.2264C94.7005 57.2616 94.7005 57.2792 94.7005 57.1868C94.6932 57.0881 94.6737 56.9906 94.6426 56.8964C94.5461 56.5845 94.3694 56.3025 94.1296 56.078C93.9163 55.8847 93.6662 55.7351 93.3937 55.638C93.1543 55.5485 92.9005 55.5023 92.6445 55.5016C92.3982 55.4987 92.1539 55.5451 91.9264 55.638C91.8494 55.6691 91.7748 55.7058 91.7034 55.748L91.8729 55.594L92.4126 55.11L93.4785 54.1244C94.1832 53.4688 94.8923 52.7692 95.5613 52.118L99 55.3256Z" fill="#FF8B7B"/>
<path opacity="0.2" d="M111.943 51.9332C113.54 53.4908 114.061 56.3332 114.173 58.7972L113.914 58.9952C112.39 57.3871 111.314 55.4162 110.792 53.2752C110.734 53.0464 110.681 52.8352 110.641 52.5844L111.943 51.9332Z" fill="black"/>
<path d="M95.8824 49.5748C95.2402 52.9188 94.8388 59.7872 96.6986 73.3832H113.495C113.611 70.8444 111.992 58.4452 114.476 46.4728C112.62 46.1212 110.743 45.8875 108.857 45.7732C106.48 45.6387 104.097 45.6387 101.721 45.7732C100.936 45.8436 100.16 45.958 99.4906 46.0768C98.6008 46.2308 97.7795 46.6477 97.1352 47.2723C96.4909 47.897 96.054 48.6999 95.8824 49.5748Z" fill="#6097CE"/>
<path opacity="0.4" d="M95.8824 49.5748C95.2402 52.9188 94.8388 59.7872 96.6986 73.3832H113.495C113.611 70.8444 111.992 58.4452 114.476 46.4728C112.62 46.1212 110.743 45.8875 108.857 45.7732C106.48 45.6387 104.097 45.6387 101.721 45.7732C100.936 45.8436 100.16 45.958 99.4906 46.0768C98.6008 46.2308 97.7795 46.6477 97.1352 47.2723C96.4909 47.897 96.054 48.6999 95.8824 49.5748Z" fill="black"/>
<path opacity="0.2" d="M98.4514 54.5337L95.4186 53.8165C95.3249 55.6293 95.316 57.8733 95.4498 60.6497C96.8458 59.0833 98.6298 56.6369 98.4514 54.5337Z" fill="black"/>
<path opacity="0.2" d="M101.449 144.954L101.609 148.65H104.749L104.588 144.954H101.449Z" fill="black"/>
<path opacity="0.2" d="M124.846 144.012L121.777 144.668L123.365 148.108L126.433 147.453L124.846 144.012Z" fill="black"/>
<path d="M109.45 35.5653C108.647 38.5309 108.326 40.3085 106.47 41.5405C103.683 43.4149 100.204 41.2677 100.115 38.1349C100.017 35.3057 101.35 30.9277 104.575 30.3293C105.284 30.1981 106.014 30.247 106.699 30.4716C107.383 30.6961 107.997 31.0888 108.485 31.6127C108.973 32.1365 109.317 32.7743 109.486 33.4658C109.655 34.1573 109.642 34.8798 109.45 35.5653Z" fill="#FF8B7B"/>
<path d="M102.412 35.6752C102.26 35.2792 101.569 32.2124 102.22 31.416C102.871 30.6196 110.297 31.196 111.394 32.2608C113.218 34.0208 111.952 35.6048 109.958 37.642C108.46 39.1732 108.402 40.898 107.643 41.162C106.305 41.602 104.263 41.1884 103.852 39.7936C103.442 38.3988 102.412 35.6752 102.412 35.6752Z" fill="#263238"/>
<path d="M110.493 28.7716C107.871 27.6716 102.952 28.8904 100.293 28.2568C100.259 29.2319 100.585 30.1862 101.208 30.9432C101.832 31.7003 102.713 32.2089 103.687 32.3752C105.892 32.7898 108.133 32.9946 110.377 32.9868C113.294 32.8548 112.723 29.7088 110.493 28.7716Z" fill="#263238"/>
<path d="M110.904 32.3533C111.862 32.4462 112.826 32.2644 113.682 31.8297C114.173 33.0001 111.475 33.3213 110.904 32.3533Z" fill="#263238"/>
<path d="M103.839 35.7984C103.779 36.5615 103.465 37.2837 102.947 37.8532C102.26 38.5968 101.547 38.1304 101.426 37.2284C101.319 36.41 101.542 35.0284 102.381 34.6324C103.219 34.2364 103.897 34.8788 103.839 35.7984Z" fill="#FF8B7B"/>
<path d="M102.653 73.3964C102.653 73.3964 106.221 97.0464 108.17 105.908C110.306 115.61 121.786 147.708 121.786 147.708L127.401 146.507C127.401 146.507 119.373 120.344 117.589 106.779C116.207 96.36 113.491 73.3876 113.491 73.3876L102.653 73.3964Z" fill="#6097CE"/>
<path d="M120.439 145.864C120.417 145.864 121.487 147.871 121.487 147.871L127.803 146.52L127.272 144.646L120.439 145.864Z" fill="#263238"/>
<path opacity="0.3" d="M104.905 81.8224C109.022 82.6188 108.585 97.7636 108.089 105.556C106.903 100.047 105.164 89.452 103.977 81.9324C104.265 81.7924 104.592 81.7536 104.905 81.8224Z" fill="black"/>
<path d="M96.6986 73.3964C96.6986 73.3964 96.2526 96.536 96.6094 105.956C96.9662 115.773 100.441 147.915 100.441 147.915H105.757C105.757 147.915 105.949 116.345 106.203 106.704C106.462 96.1972 107.746 73.3788 107.746 73.3788L96.6986 73.3964Z" fill="#6097CE"/>
<path d="M99.4192 145.847C99.3924 145.847 99.718 148.02 99.718 148.02H106.181L106.359 146.08L99.4192 145.847Z" fill="#263238"/>
<path d="M102.456 50.6044C103.959 54.604 95.1242 59.3164 95.1242 59.3164L91.2975 54.4764C91.2975 54.4764 93.871 49.4516 96.993 47.19C100.851 44.4004 101.31 47.5596 102.456 50.6044Z" fill="#6097CE"/>
<path opacity="0.4" d="M102.456 50.6044C103.959 54.604 95.1242 59.3164 95.1242 59.3164L91.2975 54.4764C91.2975 54.4764 93.871 49.4516 96.993 47.19C100.851 44.4004 101.31 47.5596 102.456 50.6044Z" fill="black"/>
<path d="M113.687 20.24C122.577 20.24 129.783 15.7091 129.783 10.12C129.783 4.53088 122.577 0 113.687 0C104.797 0 97.5909 4.53088 97.5909 10.12C97.5909 15.7091 104.797 20.24 113.687 20.24Z" fill="#6097CE"/>
<path d="M107.88 15.2152C106.82 15.2118 105.795 14.8399 104.985 14.1648C104.175 13.4896 103.632 12.5545 103.451 11.5236C103.274 10.407 103.529 9.26544 104.166 8.32616C104.804 7.38687 105.776 6.71876 106.89 6.45481C107.804 6.247 108.761 6.3271 109.627 6.68384C110.493 7.04058 111.223 7.65602 111.716 8.44361L122.05 6.34041C122.447 6.25461 122.862 6.31976 123.213 6.52286C123.563 6.72596 123.823 7.05206 123.941 7.43601C123.995 7.63788 124.006 7.8485 123.975 8.05501C123.944 8.26152 123.87 8.45958 123.759 8.63708C123.647 8.81457 123.501 8.96778 123.327 9.08734C123.153 9.20689 122.957 9.29029 122.75 9.33241L122.482 9.38521C122.442 9.39225 122.405 9.40821 122.372 9.43186C122.34 9.45551 122.313 9.48622 122.295 9.52161C122.278 9.55755 122.27 9.59656 122.27 9.63601C122.27 9.67547 122.278 9.71447 122.295 9.75041L122.478 10.2168C122.539 10.368 122.545 10.5355 122.494 10.6905C122.444 10.8455 122.34 10.9783 122.201 11.066C122.092 11.1328 121.999 11.2235 121.93 11.331C121.861 11.4385 121.818 11.56 121.804 11.6864C121.791 11.8315 121.732 11.9687 121.635 12.0785C121.538 12.1884 121.408 12.2652 121.265 12.298L121.055 12.342C120.91 12.3685 120.76 12.3487 120.626 12.2854C120.493 12.2221 120.384 12.1186 120.315 11.99C120.222 11.8365 120.083 11.7154 119.918 11.6435C119.752 11.5715 119.568 11.5524 119.39 11.5887C119.213 11.625 119.052 11.715 118.929 11.8461C118.806 11.9772 118.728 12.1429 118.705 12.32C118.692 12.4641 118.634 12.6006 118.537 12.7098C118.441 12.8189 118.312 12.8951 118.169 12.9272L117.96 12.9712C117.814 12.997 117.665 12.9769 117.532 12.9136C117.399 12.8504 117.289 12.7474 117.219 12.6192C117.153 12.5101 117.063 12.4166 116.956 12.3452C116.848 12.2738 116.727 12.2261 116.599 12.2056C116.428 12.1852 116.27 12.1038 116.155 11.9766C116.04 11.8494 115.976 11.6852 115.975 11.5148V11.0132C115.973 10.974 115.963 10.9356 115.945 10.9007C115.926 10.8657 115.901 10.8351 115.869 10.8109C115.838 10.7867 115.802 10.7694 115.763 10.7603C115.724 10.7511 115.684 10.7504 115.645 10.758L112.349 11.4268C112.215 12.3276 111.802 13.1657 111.168 13.8271C110.533 14.4884 109.708 14.9408 108.803 15.1228C108.5 15.1841 108.19 15.2151 107.88 15.2152ZM106.988 6.85521C105.977 7.08833 105.092 7.69091 104.513 8.54162C103.933 9.39233 103.702 10.428 103.866 11.44C104.042 12.3816 104.553 13.2301 105.307 13.8321C106.062 14.4341 107.01 14.7498 107.98 14.7222C108.95 14.6946 109.877 14.3254 110.595 13.6814C111.313 13.0374 111.774 12.1612 111.894 11.2112V11.0528L115.529 10.3268C115.633 10.3019 115.742 10.3003 115.847 10.3219C115.952 10.3436 116.051 10.3881 116.136 10.4521C116.222 10.5162 116.291 10.5982 116.341 10.6922C116.39 10.7862 116.417 10.8898 116.421 10.9956V11.4972C116.422 11.5569 116.444 11.6145 116.483 11.6602C116.522 11.7059 116.576 11.7369 116.635 11.748C116.83 11.7756 117.016 11.8465 117.179 11.9556C117.342 12.0646 117.478 12.2088 117.576 12.3772C117.6 12.4247 117.638 12.4638 117.685 12.489C117.732 12.5142 117.786 12.5243 117.839 12.518L118.044 12.474C118.097 12.4608 118.143 12.4314 118.177 12.3902C118.21 12.349 118.23 12.2981 118.232 12.2452C118.26 11.9713 118.376 11.7133 118.562 11.5085C118.749 11.3037 118.996 11.1627 119.269 11.1059C119.542 11.0491 119.827 11.0794 120.081 11.1924C120.336 11.3055 120.547 11.4954 120.685 11.7348C120.708 11.7819 120.745 11.8208 120.791 11.8461C120.838 11.8713 120.891 11.8817 120.943 11.8756L121.158 11.8316C121.209 11.8176 121.254 11.7879 121.287 11.7467C121.32 11.7056 121.339 11.6552 121.34 11.6028C121.362 11.4096 121.429 11.224 121.535 11.06C121.641 10.8961 121.783 10.7582 121.951 10.6568C122.001 10.6218 122.036 10.5717 122.053 10.5143C122.07 10.4569 122.067 10.3956 122.045 10.34L121.862 9.87361C121.824 9.77746 121.808 9.67432 121.815 9.57141C121.822 9.46849 121.851 9.36828 121.902 9.27777C121.952 9.18726 122.021 9.10864 122.105 9.0474C122.189 8.98616 122.286 8.94377 122.389 8.92321L122.661 8.86601C122.808 8.83504 122.947 8.77509 123.07 8.68974C123.194 8.60439 123.298 8.49541 123.378 8.3693C123.457 8.2432 123.51 8.10256 123.533 7.95581C123.556 7.80906 123.549 7.6592 123.512 7.51521C123.425 7.23831 123.235 7.00413 122.981 6.85968C122.726 6.71523 122.425 6.6712 122.139 6.73641L111.515 8.91441L111.435 8.77801C111.008 8.02837 110.345 7.43616 109.547 7.09086C108.749 6.74556 107.859 6.66593 107.01 6.86401L106.988 6.85521ZM107.88 13.5784C107.326 13.5845 106.782 13.4316 106.315 13.1384C105.762 12.7802 105.352 12.2438 105.155 11.6208C104.958 10.9977 104.986 10.3265 105.234 9.72158C105.482 9.11665 105.936 8.61546 106.517 8.30345C107.098 7.99143 107.771 7.88791 108.421 8.01053C109.071 8.13314 109.657 8.47431 110.081 8.97586C110.504 9.47742 110.738 10.1083 110.742 10.761C110.747 11.4137 110.522 12.0477 110.106 12.5551C109.69 13.0624 109.108 13.4116 108.46 13.5432C108.27 13.5771 108.077 13.5918 107.885 13.5872L107.88 13.5784ZM107.88 8.38201C107.714 8.38294 107.548 8.39915 107.385 8.43041C107.074 8.4957 106.78 8.62073 106.518 8.79836C106.256 8.97599 106.033 9.20274 105.86 9.46566C105.687 9.72858 105.568 10.0225 105.51 10.3307C105.453 10.6389 105.457 10.9553 105.523 11.2618C105.589 11.5683 105.716 11.859 105.896 12.1172C106.076 12.3754 106.306 12.5961 106.572 12.7667C106.839 12.9373 107.137 13.0544 107.449 13.1114C107.762 13.1684 108.082 13.1641 108.393 13.0988C108.859 13.003 109.287 12.7731 109.621 12.4381C109.955 12.1031 110.181 11.678 110.271 11.2164C110.361 10.7548 110.31 10.2773 110.125 9.84413C109.94 9.41098 109.629 9.04155 109.232 8.78241C108.837 8.52335 108.372 8.38695 107.898 8.39081L107.88 8.38201Z" fill="white"/>
<path opacity="0.6" d="M100.588 26.1756C103.509 26.1756 105.878 24.6863 105.878 22.8492C105.878 21.0121 103.509 19.5228 100.588 19.5228C97.6667 19.5228 95.2985 21.0121 95.2985 22.8492C95.2985 24.6863 97.6667 26.1756 100.588 26.1756Z" fill="#6097CE"/>
<path opacity="0.3" d="M92.172 27.5396C93.3716 27.5396 94.3441 26.9289 94.3441 26.1756C94.3441 25.4223 93.3716 24.8116 92.172 24.8116C90.9725 24.8116 90 25.4223 90 26.1756C90 26.9289 90.9725 27.5396 92.172 27.5396Z" fill="#6097CE"/>
</svg>
