<svg width="40" height="128" viewBox="0 0 40 128" fill="none" xmlns="http://www.w3.org/2000/svg">
<path d="M25.9239 20.6832C26.517 21.6248 27.0121 22.5224 27.5205 23.4596C28.029 24.3968 28.4884 25.3384 28.9388 26.302C29.8579 28.2532 30.6185 30.2733 31.2134 32.3432C31.2937 32.6028 31.3517 32.88 31.4186 33.1484L31.5167 33.5576L31.5657 33.76L31.6237 34.0944C31.7243 34.853 31.6774 35.6236 31.4855 36.3648C31.1776 37.5157 30.7093 38.6189 30.094 39.6428C28.9933 41.5035 27.663 43.2224 26.1335 44.76L24.2558 43.3608C25.1983 41.6516 26.0368 39.8884 26.7668 38.0808C27.092 37.2844 27.321 36.4529 27.4492 35.6036C27.4902 35.3443 27.4781 35.0795 27.4135 34.8248L27.2351 34.288C27.1637 34.068 27.0968 33.848 27.0121 33.6236C26.3337 31.8084 25.5489 30.0337 24.6617 28.3084C23.7697 26.5484 22.8108 24.7884 21.8519 23.1076L25.9239 20.6832Z" fill="#FF8B7B"/>
<path d="M24.733 42.7492L22.6814 43.8184L25.0363 46.5376C25.0363 46.5376 26.5081 45.5564 26.575 44.0604L24.733 42.7492Z" fill="#FF8B7B"/>
<path d="M19.9296 45.4948L22.4495 47.4704L25.0363 46.5376L22.6815 43.8184L19.9296 45.4948Z" fill="#FF8B7B"/>
<path d="M11.3128 6.28641C11.2638 6.53281 11.0899 6.70441 10.9293 6.67361C10.7687 6.64281 10.6751 6.41401 10.7241 6.17201C10.7732 5.93001 10.9471 5.73201 11.1122 5.78481C11.2772 5.83761 11.3619 6.04001 11.3128 6.28641Z" fill="#263238"/>
<path d="M11.1122 6.7088C10.6631 7.39799 10.1198 8.02281 9.49768 8.5656C9.64459 8.71581 9.82269 8.83291 10.0198 8.90886C10.2168 8.9848 10.4282 9.01781 10.6395 9.0056L11.1122 6.7088Z" fill="#FF5652"/>
<path d="M10.3094 15.3416V12.4552L14.1807 12.8952C14.1807 12.8952 14.1182 15.3768 11.9507 16.1072L10.3094 15.3416Z" fill="#FF8B7B"/>
<path d="M11.4244 10.3784L14.1494 11.1528L14.1985 12.9172L10.3272 12.4552L11.4244 10.3784Z" fill="#FF8B7B"/>
<path opacity="0.2" d="M14.1494 11.1528L11.4244 10.3784L10.8936 11.3816C10.9226 12.1721 11.173 12.9392 11.617 13.5978C12.061 14.2564 12.6813 14.7808 13.4091 15.1128C13.8773 14.4676 14.1509 13.7049 14.1985 12.9128L14.1494 11.1528Z" fill="black"/>
<path d="M12.4992 5.11162C12.5278 5.11086 12.5556 5.10214 12.5794 5.08647C12.6031 5.0708 12.6219 5.04881 12.6336 5.02305C12.6453 4.99729 12.6493 4.9688 12.6453 4.94087C12.6412 4.91295 12.6292 4.88672 12.6107 4.86522C12.454 4.69068 12.2573 4.55568 12.037 4.47147C11.8166 4.38727 11.579 4.35632 11.3441 4.38121C11.3056 4.38767 11.2714 4.4089 11.2488 4.44025C11.2262 4.47159 11.2172 4.5105 11.2237 4.54842C11.2302 4.5866 11.2516 4.62078 11.2832 4.64376C11.3148 4.66674 11.3542 4.67672 11.3931 4.67162C11.5792 4.6536 11.767 4.67974 11.9408 4.74786C12.1146 4.81598 12.2693 4.9241 12.3922 5.06321C12.4058 5.07792 12.4224 5.08977 12.4407 5.09809C12.4591 5.1064 12.479 5.111 12.4992 5.11162Z" fill="#263238"/>
<path d="M18.1991 10.7392C17.7531 13.0052 17.4766 16.1424 19.0911 17.6516C19.0911 17.6516 18.4667 19.9484 14.1851 19.9484C9.49768 19.9484 11.9328 17.9332 11.9328 17.9332C13.8819 17.3348 13.864 15.148 13.418 13.388L18.1991 10.7392Z" fill="#FF8B7B"/>
<path d="M19.9608 19.1652C20.3801 18.5844 20.3622 16.7408 19.9162 16.4152C19.1982 15.8916 16.1163 15.7684 11.973 16.71C12.419 18.4964 11.4601 19.4292 11.4601 19.4292L19.9608 19.1652Z" fill="#6097CE"/>
<path d="M33.9028 123.626C33.7755 123.67 33.6406 123.689 33.5058 123.681C33.3711 123.674 33.2392 123.64 33.1178 123.582C33.0718 123.539 33.0402 123.484 33.0275 123.423C33.0147 123.363 33.0213 123.3 33.0465 123.243C33.0605 123.195 33.0849 123.151 33.1181 123.114C33.1512 123.077 33.1922 123.047 33.2382 123.027C33.6619 122.825 34.6342 123.216 34.6788 123.234C34.6921 123.239 34.7035 123.248 34.7114 123.26C34.7194 123.272 34.7236 123.286 34.7234 123.3C34.7233 123.314 34.7196 123.328 34.7125 123.34C34.7055 123.353 34.6954 123.363 34.6833 123.37C34.4318 123.479 34.1705 123.565 33.9028 123.626ZM33.3899 123.128C33.3605 123.135 33.332 123.146 33.3051 123.159C33.2773 123.169 33.2523 123.186 33.2321 123.207C33.212 123.228 33.1973 123.254 33.1892 123.282C33.149 123.414 33.1892 123.458 33.2159 123.472C33.3854 123.612 34.0098 123.472 34.4514 123.309C34.1155 123.172 33.7529 123.11 33.3899 123.128Z" fill="#6097CE"/>
<path d="M34.6655 123.375H34.6298C34.273 123.274 33.5148 122.741 33.5059 122.394C33.5055 122.338 33.5244 122.285 33.5593 122.241C33.5941 122.198 33.643 122.168 33.6976 122.156C33.7505 122.136 33.8071 122.129 33.8634 122.133C33.9197 122.138 33.9743 122.155 34.0232 122.182C34.4425 122.394 34.7101 123.247 34.719 123.287C34.7252 123.298 34.7285 123.31 34.7285 123.322C34.7285 123.334 34.7252 123.346 34.719 123.357C34.7121 123.364 34.7036 123.369 34.6943 123.372C34.6851 123.375 34.6752 123.376 34.6655 123.375ZM33.7735 122.279H33.7378C33.6486 122.31 33.6486 122.354 33.6486 122.376C33.6486 122.583 34.157 123.001 34.5406 123.168C34.4469 122.922 34.2418 122.433 33.9697 122.288C33.9093 122.261 33.8406 122.258 33.7779 122.279H33.7735Z" fill="#6097CE"/>
<path d="M10.7376 124.145C10.3362 124.145 9.94814 124.088 9.8188 123.912C9.785 123.865 9.76685 123.809 9.76685 123.751C9.76685 123.693 9.785 123.637 9.8188 123.59C9.84426 123.547 9.87837 123.51 9.91901 123.481C9.95966 123.451 10.006 123.43 10.0552 123.419C10.577 123.278 11.6742 123.894 11.7188 123.92C11.7325 123.927 11.7435 123.938 11.7499 123.952C11.7564 123.965 11.758 123.981 11.7545 123.995C11.7528 124.01 11.7462 124.024 11.7358 124.035C11.7253 124.047 11.7116 124.054 11.6965 124.057C11.3801 124.114 11.0592 124.143 10.7376 124.145ZM10.2425 123.542C10.1952 123.534 10.147 123.534 10.0998 123.542C10.0696 123.548 10.041 123.56 10.0157 123.578C9.99035 123.595 9.9689 123.617 9.95261 123.643C9.89909 123.736 9.92139 123.78 9.95261 123.806C10.0998 124.008 10.8892 124.013 11.4735 123.929C11.0921 123.724 10.6742 123.592 10.2425 123.542Z" fill="#6097CE"/>
<path d="M11.692 124.057H11.6607C11.2816 123.89 10.5324 123.221 10.5903 122.869C10.5903 122.785 10.6617 122.684 10.8669 122.666C10.9402 122.658 11.0145 122.664 11.0851 122.686C11.1557 122.707 11.2211 122.742 11.2772 122.79C11.563 123.127 11.7346 123.544 11.7678 123.982C11.7677 123.995 11.7648 124.007 11.7594 124.018C11.754 124.03 11.7462 124.04 11.7366 124.048C11.7228 124.055 11.7074 124.058 11.692 124.057ZM10.9248 122.803H10.8802C10.7464 122.803 10.7375 122.864 10.7375 122.882C10.7018 123.093 11.2103 123.621 11.5983 123.85C11.5642 123.497 11.4192 123.163 11.1835 122.895C11.1103 122.834 11.0166 122.801 10.9204 122.803H10.9248Z" fill="#6097CE"/>
<path d="M15.1351 123.986H11.9997L11.6875 116.819H14.8229L15.1351 123.986Z" fill="#FF8B7B"/>
<path d="M38.1621 122.552L35.098 123.208L32.0162 116.533L35.0847 115.877L38.1621 122.552Z" fill="#FF8B7B"/>
<path d="M34.7992 122.904L38.2468 122.169C38.3071 122.157 38.3699 122.165 38.425 122.192C38.48 122.219 38.5242 122.264 38.5501 122.319L39.7454 124.88C39.7772 124.942 39.7937 125.01 39.7934 125.08C39.7932 125.149 39.7763 125.218 39.7441 125.279C39.7119 125.341 39.6653 125.395 39.6082 125.435C39.551 125.476 39.4849 125.503 39.4153 125.513C38.2111 125.746 37.609 125.804 36.0971 126.125C35.1649 126.327 33.0598 126.833 31.7709 127.106C30.4819 127.379 30.0404 126.16 30.5444 125.936C32.7967 124.919 33.7333 124.026 34.3443 123.194C34.4548 123.046 34.6167 122.943 34.7992 122.904Z" fill="#263238"/>
<path d="M12.022 123.626H15.4473C15.5095 123.626 15.5697 123.647 15.6182 123.685C15.6668 123.724 15.7008 123.777 15.7149 123.837L16.3348 126.587C16.353 126.653 16.3551 126.723 16.341 126.79C16.3269 126.858 16.297 126.921 16.2536 126.975C16.2102 127.029 16.1546 127.072 16.0912 127.101C16.0279 127.13 15.9586 127.144 15.8888 127.141C14.6534 127.119 12.8694 127.049 11.3173 127.049C9.49765 127.049 7.93219 127.146 5.80031 127.146C4.51137 127.146 4.15457 125.861 4.69423 125.742C7.14723 125.214 9.15423 125.157 11.2727 123.868C11.4952 123.721 11.7545 123.637 12.022 123.626Z" fill="#263238"/>
<path d="M24.7018 18.36C27.6409 19.0244 30.0538 26.4296 30.0538 26.4296L24.18 30.8604C22.6553 29.2522 21.5796 27.2814 21.058 25.1404C20.0188 21.2596 21.6957 17.6736 24.7018 18.36Z" fill="#6097CE"/>
<path opacity="0.4" d="M24.7018 18.36C27.6409 19.0244 30.0538 26.4296 30.0538 26.4296L24.18 30.8604C22.6553 29.2522 21.5796 27.2814 21.058 25.1404C20.0188 21.2596 21.6957 17.6736 24.7018 18.36Z" fill="black"/>
<path d="M9.23898 27.1908C8.50754 27.9696 7.7761 28.6648 7.00898 29.3908C6.62988 29.7428 6.24633 30.0948 5.85385 30.4336L5.26066 30.9484L5.11348 31.076L4.85926 31.2784C4.59762 31.4846 4.30785 31.6535 3.99848 31.78C3.65423 31.9242 3.28423 31.999 2.91024 32C2.59069 32.0013 2.27348 31.9462 1.97364 31.8372C1.64112 31.7122 1.33769 31.5222 1.08164 31.2784C0.754915 30.9634 0.515391 30.571 0.385881 30.1388C0.318137 29.9257 0.27475 29.7058 0.256537 29.4832C0.233173 29.2226 0.233173 28.9606 0.256537 28.7C0.278837 28.4888 0.305598 28.304 0.341278 28.1324C0.463323 27.5324 0.63639 26.9437 0.858639 26.3724C1.05929 25.8294 1.29008 25.2976 1.54995 24.7796C1.83539 24.2208 2.10744 23.8116 2.3795 23.3452C3.4845 21.5593 4.74554 19.8721 6.14821 18.3028C7.53675 16.7427 9.06695 15.3112 10.7197 14.026L12.361 15.6936C11.2103 17.216 10.0775 18.8484 9.02936 20.4544C7.98625 22.0513 7.03333 23.7038 6.17497 25.4044C5.98319 25.818 5.72896 26.2844 5.60854 26.6188C5.449 27.0073 5.31055 27.4038 5.19376 27.8068C5.08136 28.1697 4.99639 28.5403 4.93954 28.9156C4.93652 28.9742 4.93652 29.033 4.93954 29.0916C4.93954 29.1268 4.93954 29.1444 4.93954 29.052C4.9322 28.9532 4.91274 28.8557 4.88157 28.7616C4.78513 28.4497 4.60841 28.1677 4.36866 27.9432C4.15534 27.7499 3.90519 27.6003 3.63276 27.5032C3.39333 27.4137 3.13952 27.3675 2.88348 27.3668C2.63724 27.3639 2.39296 27.4103 2.16543 27.5032C2.08838 27.5342 2.01383 27.571 1.94243 27.6132L2.1119 27.4592L2.65157 26.9752L3.7175 25.9896C4.42218 25.334 5.13133 24.6344 5.80033 23.9832L9.23898 27.1908Z" fill="#FF8B7B"/>
<path opacity="0.2" d="M22.1819 23.7984C23.7786 25.356 24.3004 28.1984 24.4119 30.6624L24.1532 30.8604C22.6286 29.2522 21.5529 27.2814 21.0312 25.1404C20.9732 24.9116 20.9197 24.7004 20.8796 24.4496L22.1819 23.7984Z" fill="black"/>
<path d="M6.12144 21.44C5.4792 24.784 5.07779 31.6524 6.93761 45.2484H23.734C23.8499 42.7096 22.231 30.3104 24.7152 18.338C22.8591 17.9864 20.982 17.7527 19.0956 17.6384C16.7189 17.504 14.3363 17.504 11.9596 17.6384C11.1746 17.7088 10.3986 17.8232 9.72958 17.942C8.83984 18.096 8.01848 18.5129 7.37418 19.1375C6.72988 19.7622 6.29303 20.5651 6.12144 21.44Z" fill="#6097CE"/>
<path opacity="0.4" d="M6.12144 21.44C5.4792 24.784 5.07779 31.6524 6.93761 45.2484H23.734C23.8499 42.7096 22.231 30.3104 24.7152 18.338C22.8591 17.9864 20.982 17.7527 19.0956 17.6384C16.7189 17.504 14.3363 17.504 11.9596 17.6384C11.1746 17.7088 10.3986 17.8232 9.72958 17.942C8.83984 18.096 8.01848 18.5129 7.37418 19.1375C6.72988 19.7622 6.29303 20.5651 6.12144 21.44Z" fill="black"/>
<path opacity="0.2" d="M8.69039 26.3988L5.6576 25.6816C5.56394 27.4944 5.55502 29.7384 5.68882 32.5148C7.0848 30.9484 8.86879 28.502 8.69039 26.3988Z" fill="black"/>
<path opacity="0.2" d="M11.6875 116.819L11.8481 120.515H14.9879L14.8273 116.819H11.6875Z" fill="black"/>
<path opacity="0.2" d="M35.0847 115.877L32.0162 116.533L33.6039 119.974L36.6724 119.318L35.0847 115.877Z" fill="black"/>
<path d="M19.6887 7.43041C18.8859 10.396 18.5648 12.1736 16.7095 13.4056C13.922 15.28 10.4432 13.1328 10.354 10C10.2558 7.17081 11.5894 2.7928 14.814 2.1944C15.5226 2.0632 16.2534 2.11218 16.9375 2.33672C17.6216 2.56125 18.2365 2.95395 18.7242 3.4778C19.2119 4.00165 19.5564 4.6394 19.7251 5.33092C19.8939 6.02245 19.8814 6.74498 19.6887 7.43041Z" fill="#FF8B7B"/>
<path d="M12.6509 7.54041C12.4993 7.14441 11.808 4.07761 12.4591 3.28121C13.1103 2.48481 20.5362 3.06121 21.6334 4.12601C23.4575 5.88601 22.1909 7.47002 20.1972 9.50722C18.6987 11.0384 18.6407 12.7632 17.8825 13.0272C16.5445 13.4672 14.5018 13.0536 14.0915 11.6588C13.6812 10.264 12.6509 7.54041 12.6509 7.54041Z" fill="#263238"/>
<path d="M20.7324 0.636808C18.1099 -0.463192 13.1905 0.755609 10.5324 0.122009C10.4985 1.09712 10.8236 2.05137 11.4475 2.80841C12.0713 3.56545 12.9519 4.07412 13.9264 4.24041C16.1315 4.65498 18.3717 4.85979 20.6164 4.85201C23.5333 4.72001 22.9624 1.57401 20.7324 0.636808Z" fill="#263238"/>
<path d="M21.1427 4.21843C22.1007 4.31142 23.0655 4.1296 23.9213 3.69482C24.4119 4.86522 21.7136 5.18643 21.1427 4.21843Z" fill="#263238"/>
<path d="M14.0781 7.66361C14.0178 8.42667 13.7043 9.14887 13.1861 9.71841C12.4992 10.462 11.7856 9.99561 11.6652 9.09361C11.5582 8.27521 11.7811 6.8936 12.6196 6.4976C13.4581 6.1016 14.136 6.74401 14.0781 7.66361Z" fill="#FF8B7B"/>
<path d="M12.8917 45.2616C12.8917 45.2616 16.4597 68.9116 18.4087 77.7732C20.5451 87.4752 32.0251 119.573 32.0251 119.573L37.6403 118.372C37.6403 118.372 29.6123 92.2096 27.8283 78.6444C26.4457 68.2252 23.7295 45.2528 23.7295 45.2528L12.8917 45.2616Z" fill="#6097CE"/>
<path d="M30.6782 117.73C30.6559 117.73 31.7263 119.736 31.7263 119.736L38.0417 118.385L37.5109 116.511L30.6782 117.73Z" fill="#263238"/>
<path opacity="0.3" d="M15.144 53.6876C19.2606 54.484 18.8235 69.6288 18.3284 77.4212C17.1421 71.9124 15.4027 61.3172 14.2163 53.7976C14.5038 53.6576 14.8311 53.6188 15.144 53.6876Z" fill="black"/>
<path d="M6.93763 45.2616C6.93763 45.2616 6.49164 68.4012 6.84844 77.8216C7.20524 87.638 10.6796 119.78 10.6796 119.78H15.9959C15.9959 119.78 16.1877 88.21 16.4419 78.5696C16.7006 68.0624 17.985 45.244 17.985 45.244L6.93763 45.2616Z" fill="#6097CE"/>
<path d="M9.65824 117.712C9.63148 117.712 9.95705 119.886 9.95705 119.886H16.4196L16.598 117.945L9.65824 117.712Z" fill="#263238"/>
<path d="M12.6955 22.4696C14.1985 26.4692 5.36323 31.1816 5.36323 31.1816L1.53656 26.3416C1.53656 26.3416 4.10997 21.3168 7.23197 19.0552C11.0899 16.2656 11.5493 19.4248 12.6955 22.4696Z" fill="#6097CE"/>
<path opacity="0.4" d="M12.6955 22.4696C14.1985 26.4692 5.36323 31.1816 5.36323 31.1816L1.53656 26.3416C1.53656 26.3416 4.10997 21.3168 7.23197 19.0552C11.0899 16.2656 11.5493 19.4248 12.6955 22.4696Z" fill="black"/>
</svg>
