<svg width="13" height="16" viewBox="0 0 13 16" fill="none" xmlns="http://www.w3.org/2000/svg">
<path d="M3.03489 4.59469V2.32018H4.26515V4.59469H3.03489ZM3.03489 11.5209V7.77513H4.26515V11.5209H3.03489ZM1.3383 15.6554C0.970262 15.6554 0.655203 15.5268 0.393122 15.2697C0.131041 15.0125 0 14.7033 0 14.3422V1.31786C0 0.955458 0.131041 0.645213 0.393122 0.387128C0.655203 0.129043 0.970262 0 1.3383 0H11.4683C11.8376 0 12.1538 0.129043 12.4168 0.387128C12.6798 0.645213 12.8113 0.955458 12.8113 1.31786V14.3422C12.8113 14.7033 12.6798 15.0125 12.4168 15.2697C12.1538 15.5268 11.8376 15.6554 11.4683 15.6554H1.3383ZM1.3383 14.3422H11.4683V6.75353H1.3383V14.3422ZM1.3383 5.59701H11.4683V1.31786H1.3383V5.59701Z" fill="#65C9FF"/>
</svg>
