<svg width="400" height="400" viewBox="0 0 400 400" fill="none" opacity="0.5" xmlns="http://www.w3.org/2000/svg">
<path d="M66.6666 166.667C66.6666 103.817 66.6666 72.3834 86.2 52.8667C105.717 33.3334 137.15 33.3334 200 33.3334C262.85 33.3334 294.283 33.3334 313.8 52.8667C333.333 72.3834 333.333 103.817 333.333 166.667V216.667C333.333 279.517 333.333 310.95 313.8 330.467C294.283 350 262.85 350 200 350C137.15 350 105.717 350 86.2 330.467C66.6666 310.95 66.6666 279.517 66.6666 216.667V166.667Z" stroke="white" stroke-width="25"/>
<path d="M283.333 350V366.667H266.667V350M133.333 350V366.667H116.667V350" stroke="white" stroke-width="25" stroke-linejoin="round"/>
<path d="M333.333 191.667H66.6666" stroke="white" stroke-width="25"/>
<path d="M283.333 116.667V150M283.333 233.333V266.667" stroke="white" stroke-width="25" stroke-linecap="round"/>
</svg>
