<svg width="41" height="29" viewBox="0 0 41 29" fill="none" xmlns="http://www.w3.org/2000/svg">
<path d="M24.314 21.1052C33.2037 21.1052 40.4102 16.5743 40.4102 10.9852C40.4102 5.39608 33.2037 0.865204 24.314 0.865204C15.4244 0.865204 8.2179 5.39608 8.2179 10.9852C8.2179 16.5743 15.4244 21.1052 24.314 21.1052Z" fill="#6097CE"/>
<path d="M18.5071 16.0804C17.4467 16.077 16.4215 15.7051 15.6115 15.03C14.8016 14.3548 14.2587 13.4197 14.0783 12.3888C13.9009 11.2722 14.1562 10.1306 14.7934 9.19136C15.4306 8.25208 16.403 7.58397 17.517 7.32002C18.4311 7.1122 19.3883 7.1923 20.2539 7.54904C21.1195 7.90578 21.85 8.52122 22.3427 9.30881L32.6765 7.20561C33.0736 7.11981 33.489 7.18496 33.8395 7.38806C34.1901 7.59116 34.4501 7.91726 34.5675 8.30122C34.6216 8.50308 34.6334 8.71371 34.6022 8.92022C34.5709 9.12673 34.4973 9.32478 34.3859 9.50228C34.2744 9.67978 34.1275 9.83299 33.9539 9.95254C33.7804 10.0721 33.584 10.1555 33.3767 10.1976L33.1091 10.2504C33.0694 10.2575 33.0318 10.2734 32.9993 10.2971C32.9669 10.3207 32.9403 10.3514 32.9218 10.3868C32.9053 10.4228 32.8968 10.4618 32.8968 10.5012C32.8968 10.5407 32.9053 10.5797 32.9218 10.6156L33.1047 11.082C33.1659 11.2332 33.1718 11.4007 33.1214 11.5557C33.0709 11.7107 32.9672 11.8435 32.8281 11.9312C32.7185 11.998 32.6258 12.0887 32.557 12.1962C32.4882 12.3037 32.4452 12.4252 32.4312 12.5516C32.4181 12.6967 32.3588 12.8339 32.2619 12.9437C32.165 13.0536 32.0354 13.1304 31.8915 13.1632L31.6819 13.2072C31.5366 13.2337 31.3865 13.2139 31.2534 13.1506C31.1203 13.0873 31.0111 12.9838 30.9416 12.8552C30.849 12.7018 30.7102 12.5806 30.5445 12.5087C30.3788 12.4367 30.1945 12.4176 30.0173 12.4539C29.8401 12.4903 29.6787 12.5802 29.5558 12.7113C29.4329 12.8424 29.3545 13.0081 29.3315 13.1852C29.3191 13.3293 29.2606 13.4658 29.1643 13.575C29.0681 13.6841 28.9393 13.7603 28.7963 13.7924L28.5867 13.8364C28.4414 13.8622 28.2916 13.8421 28.1587 13.7788C28.0257 13.7156 27.9164 13.6126 27.8463 13.4844C27.7795 13.3753 27.6895 13.2818 27.5825 13.2104C27.4754 13.139 27.3539 13.0913 27.2264 13.0708C27.0549 13.0505 26.8968 12.969 26.7818 12.8418C26.6669 12.7146 26.6029 12.5504 26.602 12.38V11.8784C26.6002 11.8392 26.5898 11.8008 26.5716 11.7659C26.5533 11.7309 26.5277 11.7003 26.4963 11.6761C26.465 11.6519 26.4287 11.6346 26.39 11.6255C26.3513 11.6163 26.311 11.6156 26.272 11.6232L22.976 12.292C22.8416 13.1929 22.4291 14.031 21.7946 14.6923C21.1602 15.3536 20.3347 15.806 19.4303 15.988C19.1265 16.0493 18.8172 16.0803 18.5071 16.0804ZM17.6151 7.72042C16.6035 7.95353 15.719 8.55611 15.1397 9.40682C14.5604 10.2575 14.3294 11.2932 14.4931 12.3052C14.6685 13.2468 15.1797 14.0953 15.9341 14.6973C16.6886 15.2993 17.6366 15.615 18.6065 15.5874C19.5765 15.5598 20.5044 15.1906 21.2224 14.5466C21.9404 13.9026 22.4011 13.0264 22.5211 12.0764V11.918L26.156 11.192C26.2603 11.1671 26.3688 11.1655 26.4738 11.1871C26.5788 11.2088 26.6776 11.2533 26.7631 11.3173C26.8485 11.3814 26.9184 11.4634 26.9676 11.5574C27.0169 11.6514 27.0444 11.755 27.048 11.8608V12.3624C27.049 12.4221 27.0708 12.4797 27.1098 12.5254C27.1488 12.5711 27.2026 12.6021 27.2621 12.6132C27.457 12.6408 27.6431 12.7117 27.8061 12.8208C27.9692 12.9298 28.1049 13.074 28.2031 13.2424C28.2268 13.2899 28.2648 13.329 28.312 13.3542C28.3591 13.3794 28.413 13.3896 28.4663 13.3832L28.6714 13.3392C28.7234 13.326 28.7697 13.2966 28.8035 13.2554C28.8372 13.2142 28.8566 13.1634 28.8587 13.1104C28.8869 12.8365 29.0025 12.5785 29.189 12.3737C29.3755 12.1689 29.6232 12.0279 29.8962 11.9711C30.1693 11.9143 30.4536 11.9446 30.708 12.0576C30.9625 12.1707 31.1739 12.3606 31.3117 12.6C31.3346 12.6471 31.3718 12.686 31.4182 12.7113C31.4646 12.7365 31.5178 12.7469 31.5704 12.7408L31.7845 12.6968C31.8357 12.6828 31.881 12.6531 31.9139 12.6119C31.9468 12.5708 31.9655 12.5204 31.9674 12.468C31.9894 12.2748 32.056 12.0892 32.1619 11.9252C32.2677 11.7613 32.4102 11.6234 32.5784 11.522C32.6275 11.487 32.6634 11.4369 32.6804 11.3795C32.6974 11.3221 32.6944 11.2608 32.672 11.2052L32.4892 10.7388C32.4514 10.6427 32.4353 10.5395 32.4421 10.4366C32.4489 10.3337 32.4784 10.2335 32.5285 10.143C32.5786 10.0525 32.6481 9.97384 32.7323 9.9126C32.8164 9.85136 32.913 9.80898 33.0155 9.78842L33.2875 9.73122C33.4348 9.70024 33.5742 9.64029 33.6974 9.55494C33.8206 9.4696 33.9251 9.36061 34.0046 9.23451C34.0841 9.1084 34.137 8.96776 34.1602 8.82101C34.1834 8.67426 34.1763 8.52441 34.1394 8.38042C34.0523 8.10352 33.8624 7.86934 33.6076 7.72489C33.3528 7.58043 33.052 7.5364 32.7657 7.60162L22.142 9.77961L22.0617 9.64322C21.6349 8.89358 20.9723 8.30136 20.1741 7.95606C19.3759 7.61076 18.4855 7.53114 17.6374 7.72922L17.6151 7.72042ZM18.5071 14.4436C17.9531 14.4497 17.4092 14.2968 16.9416 14.0036C16.3886 13.6454 15.9786 13.1091 15.7815 12.486C15.5844 11.8629 15.6125 11.1917 15.861 10.5868C16.1094 9.98186 16.5628 9.48066 17.144 9.16865C17.7251 8.85663 18.3979 8.75311 19.0477 8.87573C19.6975 8.99835 20.2841 9.33951 20.7075 9.84107C21.1308 10.3426 21.3648 10.9735 21.3694 11.6262C21.374 12.2789 21.149 12.9129 20.7328 13.4203C20.3166 13.9276 19.7349 14.2768 19.0869 14.4084C18.8971 14.4423 18.7043 14.4571 18.5115 14.4524L18.5071 14.4436ZM18.5071 9.24721C18.3409 9.24815 18.1752 9.26435 18.012 9.29561C17.7013 9.36091 17.4067 9.48594 17.1449 9.66357C16.8832 9.84119 16.6595 10.0679 16.4866 10.3309C16.3137 10.5938 16.195 10.8877 16.1372 11.1959C16.0795 11.5041 16.0838 11.8205 16.15 12.127C16.2162 12.4335 16.3429 12.7242 16.5229 12.9824C16.703 13.2406 16.9328 13.4613 17.1993 13.6319C17.4658 13.8025 17.7638 13.9196 18.0762 13.9766C18.3886 14.0336 18.7093 14.0293 19.02 13.964C19.4864 13.8682 19.9137 13.6383 20.2479 13.3033C20.5821 12.9683 20.8083 12.5432 20.898 12.0816C20.9876 11.62 20.9368 11.1425 20.7518 10.7093C20.5668 10.2762 20.256 9.90675 19.8585 9.64762C19.4636 9.38855 18.9991 9.25215 18.5249 9.25602L18.5071 9.24721Z" fill="white"/>
<path opacity="0.6" d="M11.215 27.0408C14.1364 27.0408 16.5046 25.5515 16.5046 23.7144C16.5046 21.8773 14.1364 20.388 11.215 20.388C8.29369 20.388 5.92548 21.8773 5.92548 23.7144C5.92548 25.5515 8.29369 27.0408 11.215 27.0408Z" fill="#6097CE"/>
<path opacity="0.3" d="M2.79897 28.4048C3.99854 28.4048 4.97099 27.7941 4.97099 27.0408C4.97099 26.2875 3.99854 25.6768 2.79897 25.6768C1.5994 25.6768 0.626953 26.2875 0.626953 27.0408C0.626953 27.7941 1.5994 28.4048 2.79897 28.4048Z" fill="#6097CE"/>
</svg>
