<svg width="13" height="13" viewBox="0 0 13 13" fill="none" xmlns="http://www.w3.org/2000/svg">
<path d="M13 6.5C13 10.0899 10.0899 13 6.5 13C2.91015 13 0 10.0899 0 6.5C0 2.91015 2.91015 0 6.5 0C10.0899 0 13 2.91015 13 6.5Z" fill="#E4F3FF"/>
<g clip-path="url(#clip0_65_357)">
<path d="M6.23246 6.28125C5.74994 6.28125 5.35619 6.12876 5.05121 5.82379C4.74624 5.51881 4.59375 5.12506 4.59375 4.64254C4.59375 4.16001 4.74624 3.76563 5.05121 3.45938C5.35619 3.15312 5.74994 3 6.23246 3C6.71499 3 7.11094 3.15312 7.42031 3.45938C7.72969 3.76563 7.88437 4.16001 7.88437 4.64254C7.88437 5.12506 7.72969 5.51881 7.42031 5.82379C7.11094 6.12876 6.71499 6.28125 6.23246 6.28125ZM3 9.76875V8.63438C3 8.34688 3.07656 8.1 3.22969 7.89375C3.38281 7.6875 3.5625 7.53438 3.76875 7.43438C4.21875 7.23438 4.65312 7.0875 5.07187 6.99375C5.49062 6.9 5.87812 6.85313 6.23437 6.85313H6.6C6.55 6.94688 6.49687 7.08125 6.44062 7.25625C6.38437 7.43125 6.35 7.59375 6.3375 7.74375H6.25612C5.92912 7.74375 5.59427 7.77646 5.25156 7.84189C4.90884 7.90731 4.55244 8.02966 4.18236 8.20894C4.08202 8.25839 4.00676 8.32447 3.95656 8.40718C3.90635 8.48989 3.88125 8.57812 3.88125 8.67188V8.8875H6.30937C6.34062 9.05 6.40312 9.2125 6.49687 9.375C6.59062 9.5375 6.68437 9.66875 6.77812 9.76875H3ZM8.84144 10.0594L8.74687 9.4125C8.65312 9.3875 8.55781 9.34844 8.46094 9.29531C8.36406 9.24219 8.28437 9.18125 8.22187 9.1125L7.66875 9.24375L7.35 8.69063L7.81875 8.25938C7.8 8.22188 7.79219 8.15781 7.79531 8.06719C7.79844 7.97656 7.80625 7.91563 7.81875 7.88438L7.35 7.44375L7.66875 6.9L8.22187 7.02188C8.28437 6.95938 8.36406 6.9 8.46094 6.84375C8.55781 6.7875 8.65312 6.75 8.74687 6.73125L8.84144 6.075H9.525L9.62812 6.73125C9.71562 6.75 9.80937 6.7875 9.90937 6.84375C10.0094 6.9 10.0906 6.95938 10.1531 7.02188L10.6969 6.9L11.025 7.44375L10.5469 7.88438C10.5719 7.91958 10.5828 7.9815 10.5797 8.07015C10.5766 8.1588 10.5656 8.22188 10.5469 8.25938L11.025 8.69063L10.6969 9.24375L10.1531 9.1125C10.0906 9.18125 10.0094 9.24219 9.90937 9.29531C9.80937 9.34844 9.71562 9.3875 9.62812 9.4125L9.525 10.0594H8.84144ZM9.1875 8.76562C9.39266 8.76562 9.55957 8.70156 9.68824 8.57344C9.81691 8.44531 9.88125 8.27656 9.88125 8.06719C9.88125 7.85781 9.8168 7.68906 9.6879 7.56094C9.559 7.43281 9.39181 7.36875 9.18634 7.36875C8.98086 7.36875 8.8125 7.43309 8.68125 7.56176C8.55 7.69043 8.48437 7.85734 8.48437 8.0625C8.48437 8.275 8.55027 8.44531 8.68207 8.57344C8.81387 8.70156 8.98234 8.76562 9.1875 8.76562ZM6.23246 5.4C6.45249 5.4 6.63437 5.32861 6.77812 5.18582C6.92187 5.04303 6.99375 4.86141 6.99375 4.64095C6.99375 4.41792 6.92251 4.23555 6.78004 4.09383C6.63756 3.95211 6.45631 3.88125 6.23629 3.88125C6.01626 3.88125 5.83437 3.95225 5.69062 4.09426C5.54687 4.23627 5.475 4.41695 5.475 4.63631C5.475 4.85825 5.54624 5.04102 5.68871 5.18461C5.83119 5.3282 6.01244 5.4 6.23246 5.4Z" fill="#74CEFF"/>
</g>
<defs>
<clipPath id="clip0_65_357">
<rect x="3" y="2" width="8" height="9" fill="white"/>
</clipPath>
</defs>
</svg>
