<svg width="183" height="183" viewBox="0 0 183 183" fill="none" xmlns="http://www.w3.org/2000/svg">
<path d="M170.882 115.729H110.898V81.0178H170.882V115.729ZM111.264 115.363H170.516V81.3838H111.264V115.363Z" fill="#E0E0E0"/>
<path d="M158.507 99.5264H118.932V100.687H158.507V99.5264Z" fill="#F0F0F0"/>
<path d="M161.234 103.853H118.932V105.119H161.234V103.853Z" fill="#F0F0F0"/>
<path d="M161.234 108.23H118.932V109.496H161.234V108.23Z" fill="#F0F0F0"/>
<path d="M132.763 93.2422H118.932V96.2543H132.763V93.2422Z" fill="#F0F0F0"/>
<path d="M170.699 81.2008H111.092V86.7274H170.699V81.2008Z" fill="#E0E0E0"/>
<path d="M166.113 85.9002C166.036 85.827 166.804 84.901 167.826 83.8323C168.847 82.7636 169.743 81.9547 169.817 82.0243C169.89 82.0938 169.125 83.0235 168.104 84.0958C167.083 85.1682 166.186 85.9734 166.113 85.9002Z" fill="white"/>
<path d="M169.824 85.9002C169.751 85.9734 168.858 85.1682 167.833 84.0958C166.808 83.0235 166.043 82.0975 166.12 82.0243C166.197 81.9511 167.086 82.7563 168.111 83.8323C169.136 84.9084 169.894 85.827 169.824 85.9002Z" fill="white"/>
<path d="M97.0705 12.4623H37.4637V46.8114H97.0705V12.4623Z" fill="#E6E6E6"/>
<path d="M84.8827 30.7916H45.3071V31.9518H84.8827V30.7916Z" fill="#F0F0F0"/>
<path d="M87.6094 35.1177H45.3071V36.3841H87.6094V35.1177Z" fill="#F0F0F0"/>
<path d="M87.6094 39.4951H45.3071V40.7614H87.6094V39.4951Z" fill="#F0F0F0"/>
<path d="M59.1383 24.5074H45.3071V27.5196H59.1383V24.5074Z" fill="#F0F0F0"/>
<path d="M97.0705 12.4623H37.4637V17.9889H97.0705V12.4623Z" fill="#E0E0E0"/>
<path d="M92.2831 17.1361C92.2063 17.0666 92.9749 16.1369 93.996 15.0682C95.0172 13.9995 95.9139 13.1906 95.9871 13.2638C96.0603 13.337 95.2953 14.263 94.2742 15.3317C93.253 16.4005 92.3563 17.202 92.2831 17.1361Z" fill="white"/>
<path d="M95.9871 17.1361C95.9139 17.2093 95.0208 16.4041 93.996 15.3317C92.9712 14.2594 92.2063 13.337 92.2832 13.2638C92.36 13.1906 93.2494 13.9958 94.2742 15.0682C95.299 16.1406 96.0639 17.0666 95.9871 17.1361Z" fill="white"/>
<path d="M74.4956 76.2708H14.5228V41.5557H74.4956V76.2708ZM14.8888 75.9048H74.1296V41.9217H14.8888V75.9048Z" fill="#E0E0E0"/>
<path d="M62.1248 60.0679H22.5492V61.2282H62.1248V60.0679Z" fill="#F0F0F0"/>
<path d="M64.8515 64.394H22.5492V65.6604H64.8515V64.394Z" fill="#F0F0F0"/>
<path d="M64.8515 68.7714H22.5492V70.0378H64.8515V68.7714Z" fill="#F0F0F0"/>
<path d="M36.3803 53.7837H22.5492V56.7959H36.3803V53.7837Z" fill="#F0F0F0"/>
<path d="M74.3126 41.7386H14.7058V47.2652H74.3126V41.7386Z" fill="#E0E0E0"/>
<path d="M143.71 84.2239H73.328V147.234H143.71V84.2239Z" fill="#E6E6E6"/>
<path d="M76.8673 64.3757H21.733V121.658H76.8673V64.3757Z" fill="#F0F0F0"/>
<path d="M76.8673 64.3757H21.733V70.616H76.8673V64.3757Z" fill="#E0E0E0"/>
<path d="M26.2861 67.4319C26.2761 67.6582 26.1998 67.8765 26.0668 68.0599C25.9337 68.2432 25.7498 68.3834 25.5378 68.4632C25.3258 68.5429 25.095 68.5586 24.8741 68.5084C24.6533 68.4581 24.452 68.3441 24.2953 68.1805C24.1387 68.0169 24.0335 67.8109 23.9929 67.5881C23.9522 67.3652 23.978 67.1354 24.0668 66.927C24.1556 66.7186 24.3037 66.5409 24.4926 66.416C24.6816 66.291 24.903 66.2243 25.1295 66.2241C25.4428 66.2317 25.7403 66.3631 25.957 66.5894C26.1737 66.8157 26.292 67.1186 26.2861 67.4319Z" fill="white"/>
<path d="M30.9818 67.4318C30.9725 67.6592 30.8965 67.8788 30.7633 68.0633C30.6301 68.2478 30.4456 68.3891 30.2328 68.4696C30.0199 68.55 29.7881 68.5661 29.5661 68.5158C29.3442 68.4655 29.142 68.3511 28.9846 68.1867C28.8272 68.0223 28.7216 67.8153 28.681 67.5914C28.6404 67.3675 28.6665 67.1366 28.7561 66.9274C28.8457 66.7183 28.9948 66.5401 29.1849 66.415C29.375 66.2899 29.5977 66.2235 29.8253 66.224C30.1385 66.2317 30.436 66.3631 30.6527 66.5894C30.8694 66.8157 30.9877 67.1186 30.9818 67.4318Z" fill="white"/>
<path d="M35.6776 67.4318C35.6683 67.6592 35.5923 67.8788 35.4591 68.0633C35.3259 68.2478 35.1414 68.3891 34.9286 68.4696C34.7157 68.55 34.4839 68.5661 34.2619 68.5158C34.04 68.4655 33.8378 68.3511 33.6804 68.1867C33.523 68.0223 33.4174 67.8153 33.3768 67.5914C33.3362 67.3675 33.3623 67.1366 33.4519 66.9274C33.5415 66.7183 33.6906 66.5401 33.8807 66.415C34.0708 66.2899 34.2935 66.2235 34.5211 66.224C34.8343 66.2317 35.1318 66.3631 35.3485 66.5894C35.5652 66.8157 35.6835 67.1186 35.6776 67.4318Z" fill="white"/>
<path d="M163.009 24.9905H92.6272V95.138H163.009V24.9905Z" fill="#F0F0F0"/>
<path d="M163.009 24.9905H92.6272V33.2072H163.009V24.9905Z" fill="#E0E0E0"/>
<path d="M98.6223 29.0165C98.6094 29.3152 98.509 29.6035 98.3337 29.8457C98.1583 30.0879 97.9157 30.2732 97.6359 30.3787C97.3562 30.4842 97.0516 30.5052 96.76 30.439C96.4684 30.3729 96.2027 30.2226 95.9958 30.0068C95.7889 29.7909 95.6499 29.5191 95.5962 29.2249C95.5424 28.9308 95.5762 28.6274 95.6934 28.3523C95.8106 28.0773 96.0061 27.8427 96.2554 27.6777C96.5048 27.5127 96.7971 27.4247 97.0961 27.4244C97.5093 27.434 97.9019 27.6069 98.188 27.9053C98.474 28.2037 98.6302 28.6032 98.6223 29.0165Z" fill="white"/>
<path d="M104.358 27.9405C104.56 28.1608 104.694 28.436 104.742 28.7317C104.789 29.0274 104.749 29.3306 104.625 29.6035C104.502 29.8764 104.301 30.107 104.047 30.2664C103.794 30.4258 103.499 30.5071 103.199 30.5001C102.9 30.4931 102.609 30.3982 102.363 30.2271C102.117 30.056 101.927 29.8164 101.817 29.538C101.706 29.2596 101.68 28.9549 101.741 28.6617C101.802 28.3685 101.949 28.0999 102.162 27.8892C102.46 27.6054 102.859 27.4514 103.27 27.461C103.682 27.4706 104.073 27.643 104.358 27.9405Z" fill="white"/>
<path d="M110.986 29.0165C110.973 29.3152 110.873 29.6035 110.697 29.8457C110.522 30.0879 110.279 30.2732 109.999 30.3787C109.72 30.4842 109.415 30.5052 109.124 30.439C108.832 30.3729 108.566 30.2226 108.359 30.0068C108.152 29.7909 108.013 29.5191 107.96 29.2249C107.906 28.9308 107.94 28.6274 108.057 28.3523C108.174 28.0773 108.37 27.8427 108.619 27.6777C108.868 27.5127 109.161 27.4247 109.46 27.4244C109.873 27.434 110.265 27.6069 110.551 27.9053C110.838 28.2037 110.994 28.6032 110.986 29.0165Z" fill="white"/>
<path d="M135.984 21.8429L134.099 22.5163L133.29 20.0531C131.804 15.5111 127.068 13.0991 122.716 14.6327C118.364 16.1662 116.048 21.1475 117.534 25.6895L118.342 28.1527L116.45 28.8298C115.729 29.1097 115.143 29.6568 114.814 30.3575C114.486 31.0583 114.44 31.8586 114.686 32.5923L119.931 48.6194C120.04 48.9826 120.221 49.3202 120.462 49.6122C120.704 49.9041 121.003 50.1445 121.339 50.3189C121.676 50.4934 122.044 50.5984 122.422 50.6278C122.8 50.6571 123.18 50.6101 123.54 50.4897L143.073 43.5028C143.804 43.2234 144.398 42.6714 144.731 41.9628C145.063 41.2543 145.108 40.4445 144.855 39.7037L139.607 23.6765C139.495 23.3144 139.312 22.9784 139.067 22.6887C138.823 22.399 138.523 22.1615 138.185 21.9904C137.847 21.8192 137.477 21.718 137.099 21.6926C136.721 21.6673 136.342 21.7184 135.984 21.8429ZM121.095 24.4049C120.694 23.2239 120.766 21.9336 121.295 20.8045C121.825 19.6753 122.771 18.7949 123.935 18.3476C124.51 18.1509 125.118 18.072 125.724 18.1157C126.33 18.1593 126.921 18.3246 127.462 18.6016C128.003 18.8786 128.482 19.2617 128.872 19.7281C129.261 20.1944 129.553 20.7344 129.729 21.3158L130.534 23.779L121.9 26.8681L121.095 24.4049ZM132.075 38.6276L133.414 42.7195C133.439 42.8016 133.431 42.8899 133.392 42.9663C133.353 43.0426 133.287 43.101 133.206 43.1294L131.328 43.7992C131.253 43.8199 131.174 43.8109 131.105 43.7741C131.037 43.7372 130.986 43.6754 130.962 43.6016L129.612 39.528C128.867 39.4874 128.152 39.2203 127.564 38.7624C126.975 38.3046 126.54 37.6778 126.318 36.966C125.999 36.025 126.057 34.9973 126.48 34.0982C126.902 33.199 127.656 32.4981 128.583 32.1421C129.041 31.9857 129.526 31.923 130.008 31.9579C130.491 31.9927 130.962 32.1244 131.392 32.345C131.823 32.5657 132.205 32.8707 132.515 33.2421C132.826 33.6134 133.058 34.0434 133.198 34.5065C133.434 35.2295 133.453 36.0056 133.254 36.7395C133.056 37.4735 132.647 38.1334 132.078 38.6386L132.075 38.6276Z" fill="#65C9FF"/>
<path d="M134.015 22.4724C134.015 22.5236 130.519 23.8376 126.171 25.4004C121.823 26.9632 118.277 28.2186 118.258 28.182C118.24 28.1454 121.754 26.8205 126.105 25.254C130.457 23.6875 133.996 22.4248 134.015 22.4724Z" fill="#263238"/>
<path d="M138.165 23.1458C138.181 23.1776 138.195 23.2107 138.205 23.2447C138.235 23.3179 138.267 23.413 138.311 23.5301C138.407 23.7973 138.538 24.167 138.703 24.6281L140.108 28.72C140.694 30.4549 141.393 32.5118 142.169 34.7956C142.535 35.9412 142.967 37.1344 143.37 38.3897C143.585 39.0367 143.678 39.7181 143.644 40.3991C143.613 40.7533 143.512 41.0978 143.348 41.4129C143.172 41.7269 142.937 42.0041 142.656 42.2291C142.09 42.6418 141.463 42.9618 140.797 43.177L138.912 43.8541L135.343 45.1315L129.301 47.2835L125.22 48.7183L124.122 49.0843L123.829 49.1794C123.797 49.1933 123.764 49.202 123.73 49.205C123.73 49.205 123.759 49.205 123.821 49.1611L124.107 49.0477L125.205 48.6341L129.264 47.1408L135.296 44.9448L138.857 43.6565L140.742 42.9757C141.389 42.7693 141.998 42.459 142.546 42.0571C142.807 41.8483 143.026 41.591 143.19 41.2994C143.345 41.008 143.439 40.6879 143.465 40.3588C143.498 39.7027 143.409 39.046 143.201 38.4227C142.806 37.1783 142.389 35.9741 142.012 34.8286C141.25 32.5411 140.548 30.4768 139.991 28.742C139.435 27.0071 138.967 25.6127 138.644 24.6318C138.491 24.1523 138.374 23.779 138.278 23.5082L138.191 23.2154C138.18 23.1932 138.171 23.1699 138.165 23.1458Z" fill="#263238"/>
<path d="M127.859 18.0987C127.859 18.0987 127.665 18.0036 127.306 17.8572C126.795 17.6607 126.254 17.5518 125.706 17.5351C124.895 17.5072 124.087 17.6598 123.342 17.9816C122.436 18.3824 121.661 19.0306 121.106 19.8519C120.547 20.6708 120.248 21.6386 120.246 22.6298C120.253 23.4422 120.377 24.2494 120.612 25.0271C120.802 25.6932 121 26.2239 121.131 26.5936C121.209 26.7813 121.273 26.9746 121.322 27.1719C121.218 26.9963 121.131 26.8112 121.062 26.6192C120.912 26.2532 120.696 25.7335 120.484 25.0637C120.223 24.2778 120.081 23.4575 120.063 22.6298C120.053 21.6011 120.36 20.5943 120.941 19.7457C121.515 18.8944 122.322 18.2262 123.265 17.8206C124.034 17.4969 124.867 17.3542 125.699 17.4033C126.258 17.4318 126.808 17.562 127.321 17.7876C127.458 17.8508 127.59 17.9242 127.716 18.0072C127.768 18.0301 127.816 18.061 127.859 18.0987Z" fill="#263238"/>
<path d="M128.027 32.4203C128.085 32.3849 128.146 32.3543 128.21 32.3288C128.393 32.2461 128.583 32.1788 128.777 32.1275C129.086 32.0364 129.404 31.9824 129.725 31.9665C130.162 31.943 130.599 32.009 131.01 32.1604C131.947 32.4898 132.807 33.4451 133.231 34.7224C133.435 35.4079 133.435 36.1378 133.231 36.8233C133.006 37.5673 132.601 38.2446 132.053 38.796L132.075 38.6972C132.562 40.0331 133.092 41.4825 133.641 42.994L133.674 43.0855L133.583 43.1185L132.745 43.3966L130.915 44.0079L130.823 44.0371L130.794 43.9456C130.292 42.4304 129.743 41.0176 129.33 39.6305L129.41 39.6927C128.695 39.6333 128.013 39.3647 127.449 38.9205C126.938 38.5274 126.52 38.0278 126.222 37.4565C125.954 36.9498 125.821 36.3826 125.834 35.8095C125.851 35.2237 125.998 34.6488 126.263 34.1262C126.528 33.6035 126.905 33.146 127.368 32.7863C127.558 32.6317 127.772 32.5082 128.001 32.4203C127.794 32.543 127.594 32.6761 127.401 32.8192C126.893 33.2492 126.503 33.8025 126.27 34.426C126.07 34.8962 125.976 35.4048 125.996 35.9155C126.015 36.4262 126.148 36.9262 126.383 37.3796C126.676 37.9292 127.084 38.4088 127.58 38.785C128.118 39.2073 128.769 39.4619 129.451 39.517H129.513L129.531 39.5719C129.934 40.9335 130.486 42.3572 130.995 43.8798L130.874 43.8212L132.704 43.21L133.539 42.9282L133.48 43.0526C132.935 41.541 132.408 40.088 131.925 38.7521V38.6972L131.969 38.6533C132.501 38.1247 132.897 37.4756 133.125 36.7611C133.319 36.1053 133.319 35.4074 133.125 34.7517C132.726 33.522 131.903 32.5887 131.01 32.2593C130.614 32.1068 130.192 32.0359 129.769 32.0506C129.453 32.0579 129.139 32.1008 128.832 32.1787C128.287 32.3142 128.03 32.4386 128.027 32.4203Z" fill="#263238"/>
<path d="M116.714 138.099L80.1539 137.931C78.0427 137.919 76.0223 137.07 74.5366 135.57C73.0509 134.07 72.2213 132.041 72.23 129.93L72.618 38.2799C72.6223 37.2339 72.8327 36.199 73.2372 35.2344C73.6418 34.2697 74.2324 33.3943 74.9754 32.658C75.7185 31.9218 76.5993 31.3392 77.5677 30.9436C78.536 30.548 79.5728 30.3471 80.6188 30.3524L117.175 30.5207C119.286 30.5314 121.307 31.3796 122.793 32.879C124.28 34.3784 125.11 36.4065 125.102 38.5178L124.714 130.164C124.71 131.211 124.5 132.246 124.095 133.211C123.691 134.176 123.1 135.052 122.357 135.789C121.615 136.526 120.734 137.109 119.765 137.505C118.797 137.902 117.76 138.103 116.714 138.099Z" fill="#455A64"/>
<path d="M117.12 33.672H110.034C109.803 33.6763 109.575 33.7261 109.363 33.8185C109.151 33.911 108.959 34.0443 108.799 34.2108C108.638 34.3774 108.512 34.5739 108.428 34.7891C108.343 35.0044 108.302 35.2342 108.307 35.4654V36.7501C108.311 36.9811 108.27 37.2107 108.185 37.4257C108.101 37.6408 107.975 37.8371 107.814 38.0033C107.654 38.1696 107.462 38.3025 107.25 38.3946C107.038 38.4866 106.81 38.536 106.579 38.5398L92.7662 38.4776C92.299 38.4651 91.8557 38.2677 91.5339 37.9287C91.212 37.5897 91.0379 37.1368 91.0497 36.6695V35.3849C91.0615 34.9182 90.8879 34.4659 90.5668 34.127C90.2458 33.7881 89.8035 33.5902 89.3368 33.5768H86.8444L80.6407 33.5476C79.1651 33.5388 77.7462 34.115 76.6946 35.1502C75.643 36.1853 75.0444 37.595 75.0299 39.0705L74.6639 128.528C74.6605 129.26 74.8013 129.986 75.0784 130.663C75.3554 131.341 75.7632 131.957 76.2784 132.477C76.7936 132.997 77.4062 133.411 78.0812 133.694C78.7562 133.977 79.4804 134.125 80.2124 134.128L116.695 134.296C117.428 134.3 118.154 134.159 118.832 133.882C119.51 133.604 120.127 133.196 120.647 132.681C121.167 132.165 121.581 131.552 121.864 130.877C122.148 130.201 122.295 129.477 122.299 128.744L122.665 39.2864C122.674 37.8067 122.094 36.3841 121.055 35.3313C120.015 34.2785 118.6 33.6817 117.12 33.672Z" fill="white"/>
<path d="M112.212 122.361L85.084 122.244C84.8022 122.244 84.5752 121.937 84.5789 121.563L84.6082 114.466C84.6082 114.1 84.8388 113.786 85.1206 113.786L112.249 113.91C112.405 113.937 112.544 114.023 112.638 114.151C112.733 114.278 112.774 114.437 112.754 114.595L112.728 121.684C112.728 122.061 112.494 122.365 112.212 122.361Z" fill="#65C9FF"/>
<path d="M93.3075 118.911C93.1619 118.911 93.0219 118.888 92.8875 118.841C92.7549 118.793 92.6523 118.731 92.5795 118.656L92.6607 118.497C92.7297 118.564 92.8221 118.621 92.9379 118.667C93.0555 118.712 93.1787 118.735 93.3075 118.735C93.4307 118.735 93.5305 118.72 93.6071 118.69C93.6855 118.658 93.7424 118.616 93.7779 118.564C93.8152 118.512 93.8339 118.454 93.8339 118.39C93.8339 118.314 93.8115 118.252 93.7667 118.205C93.7237 118.159 93.6668 118.122 93.5959 118.096C93.5249 118.068 93.4465 118.044 93.3607 118.023C93.2748 118.003 93.1889 117.981 93.1031 117.959C93.0172 117.935 92.9379 117.903 92.8651 117.864C92.7941 117.825 92.7363 117.773 92.6915 117.71C92.6485 117.645 92.6271 117.56 92.6271 117.455C92.6271 117.358 92.6523 117.269 92.7027 117.189C92.7549 117.107 92.8343 117.042 92.9407 116.993C93.0471 116.943 93.1833 116.917 93.3495 116.917C93.4596 116.917 93.5688 116.933 93.6771 116.965C93.7853 116.995 93.8787 117.037 93.9571 117.091L93.8871 117.256C93.8031 117.2 93.7135 117.159 93.6183 117.133C93.5249 117.107 93.4344 117.094 93.3467 117.094C93.2291 117.094 93.132 117.11 93.0555 117.141C92.9789 117.173 92.922 117.216 92.8847 117.27C92.8492 117.323 92.8315 117.382 92.8315 117.449C92.8315 117.526 92.8529 117.588 92.8959 117.634C92.9407 117.681 92.9985 117.717 93.0695 117.743C93.1423 117.77 93.2216 117.793 93.3075 117.813C93.3933 117.834 93.4783 117.856 93.5623 117.881C93.6481 117.905 93.7265 117.937 93.7975 117.976C93.8703 118.013 93.9281 118.064 93.9711 118.127C94.0159 118.191 94.0383 118.274 94.0383 118.376C94.0383 118.471 94.0121 118.56 93.9599 118.642C93.9076 118.723 93.8273 118.788 93.7191 118.838C93.6127 118.887 93.4755 118.911 93.3075 118.911ZM94.4897 118.894V116.934H94.6969V118.894H94.4897ZM95.3347 118.894V116.934H95.5055L96.8579 118.637H96.7683V116.934H96.9727V118.894H96.8019L95.4523 117.192H95.5419V118.894H95.3347ZM98.472 118.911C98.3227 118.911 98.1845 118.887 98.0576 118.838C97.9325 118.788 97.8233 118.718 97.73 118.628C97.6385 118.539 97.5667 118.433 97.5144 118.312C97.464 118.191 97.4388 118.058 97.4388 117.914C97.4388 117.771 97.464 117.638 97.5144 117.517C97.5667 117.395 97.6395 117.29 97.7328 117.2C97.8261 117.111 97.9353 117.042 98.0604 116.993C98.1873 116.943 98.3255 116.917 98.4748 116.917C98.6241 116.917 98.7604 116.941 98.8836 116.987C99.0087 117.034 99.1151 117.105 99.2028 117.2L99.074 117.332C98.9919 117.25 98.9013 117.191 98.8024 117.155C98.7035 117.12 98.5971 117.102 98.4832 117.102C98.3619 117.102 98.2499 117.123 98.1472 117.164C98.0464 117.203 97.9577 117.26 97.8812 117.335C97.8065 117.407 97.7477 117.493 97.7048 117.592C97.6637 117.689 97.6432 117.797 97.6432 117.914C97.6432 118.03 97.6637 118.137 97.7048 118.236C97.7477 118.335 97.8065 118.422 97.8812 118.497C97.9577 118.569 98.0464 118.626 98.1472 118.667C98.2499 118.707 98.3609 118.726 98.4804 118.726C98.5924 118.726 98.6979 118.709 98.7968 118.676C98.8976 118.642 98.99 118.585 99.074 118.505L99.1916 118.662C99.0983 118.744 98.9891 118.807 98.864 118.849C98.7389 118.891 98.6083 118.911 98.472 118.911ZM98.9928 118.637V117.914H99.1916V118.662L98.9928 118.637ZM101.3 118.911C101.05 118.911 100.853 118.839 100.71 118.695C100.566 118.552 100.494 118.339 100.494 118.057V116.934H100.701V118.049C100.701 118.28 100.753 118.451 100.858 118.561C100.963 118.671 101.11 118.726 101.3 118.726C101.493 118.726 101.641 118.671 101.746 118.561C101.85 118.451 101.902 118.28 101.902 118.049V116.934H102.104V118.057C102.104 118.339 102.032 118.552 101.888 118.695C101.747 118.839 101.551 118.911 101.3 118.911ZM102.728 118.894V116.934H103.462C103.628 116.934 103.771 116.961 103.89 117.015C104.01 117.068 104.101 117.144 104.165 117.245C104.23 117.344 104.263 117.464 104.263 117.606C104.263 117.744 104.23 117.864 104.165 117.965C104.101 118.064 104.01 118.14 103.89 118.194C103.771 118.248 103.628 118.275 103.462 118.275H102.843L102.936 118.177V118.894H102.728ZM102.936 118.194L102.843 118.093H103.456C103.652 118.093 103.801 118.051 103.902 117.967C104.004 117.882 104.056 117.761 104.056 117.606C104.056 117.449 104.004 117.328 103.902 117.242C103.801 117.156 103.652 117.113 103.456 117.113H102.843L102.936 117.015V118.194Z" fill="#E8E8E3"/>
<path d="M90.495 59.9692L81.0815 59.9265L81.0737 61.654L90.4871 61.6967L90.495 59.9692Z" fill="#65C9FF"/>
<path opacity="0.1" d="M90.495 59.9692L81.0815 59.9265L81.0737 61.654L90.4871 61.6967L90.495 59.9692Z" fill="black"/>
<path d="M118.09 70.5758C118.164 70.5683 118.236 70.5511 118.306 70.5245C118.407 70.4849 118.495 70.4176 118.56 70.3302C118.625 70.2428 118.663 70.1389 118.672 70.0304C118.672 69.4485 118.672 68.5994 118.672 67.5087C118.672 66.9633 118.672 66.3521 118.672 65.6787C118.672 65.514 118.672 65.342 118.672 65.1699C118.696 65.003 118.659 64.8331 118.569 64.6905C118.519 64.6221 118.453 64.5664 118.378 64.5276C118.302 64.4889 118.219 64.4682 118.134 64.4672H117.563H112.274L81.6618 64.3538C81.5835 64.3524 81.5059 64.37 81.4358 64.4051C81.3658 64.4401 81.3052 64.4916 81.2592 64.5551C81.1708 64.6982 81.137 64.8685 81.1641 65.0345C81.1641 65.4005 81.1641 65.7665 81.1641 66.1325C81.1641 66.8645 81.1641 67.5965 81.1641 68.3285C81.1641 68.6945 81.1641 69.0605 81.1641 69.4265C81.1489 69.597 81.1489 69.7685 81.1641 69.9389C81.1833 70.012 81.219 70.0797 81.2685 70.1368C81.318 70.1939 81.3799 70.2389 81.4495 70.2683C81.5216 70.297 81.5989 70.3107 81.6765 70.3086H83.5394L91.6683 70.3525L105.43 70.4367L114.708 70.5099L117.23 70.5392H117.885C118.035 70.5392 118.108 70.5392 118.108 70.5392H117.885H117.23H114.708H105.43L91.6683 70.4953L83.5394 70.4623H81.6765C81.5739 70.4665 81.4717 70.449 81.3763 70.4111C81.28 70.3699 81.1943 70.3073 81.1258 70.2281C81.0572 70.1488 81.0078 70.0549 80.9811 69.9536C80.9599 69.8575 80.9525 69.7589 80.9591 69.6608V69.3899C80.9591 69.0239 80.9591 68.6579 80.9591 68.2919C80.9591 67.5599 80.9591 66.8279 80.9591 66.0959C80.9591 65.7299 80.9591 65.3639 80.9591 64.9979C80.9521 64.9005 80.9521 64.8026 80.9591 64.7051C80.9728 64.5975 81.0144 64.4953 81.0799 64.4087C81.143 64.3203 81.2266 64.2486 81.3234 64.1995C81.4203 64.1504 81.5276 64.1255 81.6362 64.1269L112.248 64.2952L117.537 64.3318H118.108C118.209 64.3319 118.308 64.3562 118.397 64.4027C118.486 64.4492 118.563 64.5166 118.62 64.599C118.724 64.7581 118.765 64.9494 118.738 65.137C118.738 65.309 118.738 65.4811 118.738 65.6458C118.738 66.3119 118.738 66.9231 118.738 67.4758C118.738 68.5738 118.712 69.4155 118.705 70.0011C118.696 70.1137 118.655 70.2214 118.587 70.3116C118.519 70.4017 118.426 70.4705 118.32 70.5099C118.251 70.5528 118.171 70.5756 118.09 70.5758Z" fill="#E0E0E0"/>
<path d="M101.126 66.1911H83.9091V67.8051H101.126V66.1911Z" fill="#65C9FF"/>
<path opacity="0.2" d="M101.126 66.1911H83.9091V67.8051H101.126V66.1911Z" fill="white"/>
<path d="M90.4308 75.7287L81.0173 75.6859L81.0095 77.4134L90.4229 77.4562L90.4308 75.7287Z" fill="#65C9FF"/>
<path opacity="0.1" d="M90.4308 75.7287L81.0173 75.6859L81.0095 77.4134L90.4229 77.4562L90.4308 75.7287Z" fill="black"/>
<path d="M117.852 86.3357C117.926 86.3266 117.999 86.3132 118.071 86.2955C118.174 86.2629 118.268 86.2088 118.347 86.1369C118.427 86.0649 118.49 85.9767 118.533 85.8782C118.59 85.7305 118.613 85.5713 118.599 85.4134C118.599 85.2377 118.599 85.0474 118.599 84.8351C118.599 84.4106 118.599 83.9274 118.599 83.3711V81.047C118.616 80.8788 118.579 80.7093 118.492 80.5639C118.402 80.4147 118.26 80.304 118.093 80.2528C117.911 80.2203 117.726 80.2104 117.541 80.2235H112.274L81.768 80.1101C81.6039 80.1105 81.4455 80.1704 81.3223 80.2788C81.1991 80.3872 81.1195 80.5366 81.0982 80.6993C81.0982 81.047 81.0982 81.4313 81.0982 81.7973C81.0982 82.5293 81.0982 83.2613 81.0982 83.9933C81.0982 84.3593 81.0982 84.7253 81.0982 85.0913C81.0845 85.2624 81.0919 85.4345 81.1201 85.6037C81.1658 85.7521 81.2599 85.881 81.3873 85.9697C81.5225 86.0555 81.6813 86.0965 81.8412 86.0868H82.3499H83.4076L91.5072 86.1271L105.221 86.2113L114.466 86.2845L116.981 86.3138H114.466H105.221L91.4999 86.2991L83.4003 86.2698H81.8082C81.6103 86.2816 81.4138 86.2289 81.2482 86.1198C81.0817 86.0044 80.9602 85.835 80.9042 85.6403C80.8714 85.4544 80.8616 85.2651 80.8749 85.0767C80.8749 84.7107 80.8749 84.3447 80.8749 83.9787C80.8749 83.2467 80.8749 82.5147 80.8749 81.7827C80.8749 81.4167 80.8749 81.0507 80.8749 80.6847C80.9016 80.4754 81.0037 80.283 81.162 80.1436C81.3203 80.0041 81.524 79.9271 81.735 79.9271L112.241 80.0954L117.508 80.1357C117.704 80.1236 117.901 80.1372 118.093 80.1759C118.284 80.2381 118.444 80.3685 118.544 80.5419C118.638 80.7031 118.679 80.8903 118.661 81.0763C118.661 81.2483 118.661 81.4167 118.661 81.585C118.661 82.2475 118.661 82.8551 118.661 83.415C118.661 83.975 118.661 84.4472 118.661 84.879C118.661 85.0877 118.661 85.2816 118.661 85.461C118.674 85.6247 118.648 85.7891 118.584 85.9404C118.536 86.0414 118.468 86.131 118.382 86.203C118.297 86.275 118.197 86.3278 118.09 86.3577C118.01 86.3643 117.929 86.3569 117.852 86.3357Z" fill="#E0E0E0"/>
<path d="M90.3598 92.1726L80.9464 92.1298L80.9386 93.8573L90.352 93.9001L90.3598 92.1726Z" fill="#65C9FF"/>
<path opacity="0.1" d="M90.3598 92.1726L80.9464 92.1298L80.9386 93.8573L90.352 93.9001L90.3598 92.1726Z" fill="black"/>
<path d="M117.779 102.773C117.853 102.764 117.926 102.751 117.998 102.733C118.1 102.7 118.194 102.647 118.273 102.575C118.353 102.504 118.416 102.417 118.46 102.319C118.517 102.171 118.539 102.012 118.525 101.854C118.525 101.675 118.525 101.488 118.525 101.272C118.525 100.851 118.525 100.365 118.525 99.8082V97.4841C118.543 97.3158 118.506 97.1464 118.419 97.001C118.327 96.8545 118.186 96.7456 118.02 96.6935C117.838 96.6597 117.653 96.6486 117.468 96.6606H112.201L81.6949 96.5471C81.5308 96.5475 81.3724 96.6075 81.2492 96.7159C81.126 96.8243 81.0464 96.9737 81.0251 97.1364C81.0251 97.5024 81.0251 97.8684 81.0251 98.2344C81.0251 98.9664 81.0251 99.6984 81.0251 100.43C81.0251 100.796 81.0251 101.162 81.0251 101.528C81.0114 101.698 81.0188 101.869 81.047 102.037C81.0909 102.186 81.1853 102.316 81.3142 102.403C81.4486 102.491 81.608 102.532 81.7681 102.52H83.3602L91.4597 102.564L105.174 102.648L114.419 102.722L116.933 102.751H114.419H105.174L91.4597 102.711L83.3602 102.678H81.7681C81.5699 102.691 81.373 102.638 81.2081 102.528C81.0415 102.412 80.92 102.243 80.864 102.048C80.8312 101.862 80.8214 101.673 80.8348 101.484C80.8348 101.118 80.8348 100.752 80.8348 100.386C80.8348 99.6545 80.8348 98.9225 80.8348 98.1905C80.8348 97.8245 80.8348 97.4585 80.8348 97.0742C80.8606 96.8652 80.9619 96.6729 81.1197 96.5334C81.2774 96.3939 81.4806 96.3167 81.6912 96.3166L112.197 96.4849L117.464 96.5252C117.66 96.5132 117.857 96.5267 118.05 96.5654C118.24 96.6276 118.4 96.758 118.5 96.9314C118.594 97.0926 118.636 97.2798 118.617 97.4658C118.617 97.6378 118.617 97.8098 118.617 97.9745C118.617 98.637 118.617 99.2446 118.617 99.8045C118.617 100.365 118.617 100.837 118.617 101.269C118.617 101.477 118.617 101.671 118.617 101.85C118.631 102.014 118.605 102.179 118.54 102.33C118.493 102.431 118.424 102.52 118.339 102.592C118.253 102.664 118.153 102.717 118.046 102.747C117.96 102.777 117.869 102.785 117.779 102.773Z" fill="#E0E0E0"/>
<path d="M100.758 82.4074L83.5417 82.3293L83.5344 83.9433L100.751 84.0214L100.758 82.4074Z" fill="#65C9FF"/>
<path opacity="0.2" d="M100.758 82.4074L83.5417 82.3293L83.5344 83.9433L100.751 84.0214L100.758 82.4074Z" fill="white"/>
<path d="M85.0985 99.7862C85.0877 99.9335 85.034 100.074 84.9439 100.191C84.8538 100.308 84.7314 100.396 84.5918 100.444C84.4522 100.492 84.3015 100.498 84.1586 100.461C84.0156 100.424 83.8866 100.346 83.7876 100.237C83.6885 100.128 83.6238 99.9914 83.6014 99.8455C83.579 99.6996 83.5999 99.5503 83.6616 99.4162C83.7232 99.282 83.8229 99.169 83.9482 99.091C84.0735 99.013 84.219 98.9735 84.3665 98.9774C84.5705 98.9887 84.7617 99.08 84.8987 99.2314C85.0357 99.3829 85.1075 99.5822 85.0985 99.7862Z" fill="#65C9FF"/>
<path d="M87.43 99.7972C87.4372 99.9004 87.4231 100.004 87.3886 100.101C87.3541 100.199 87.2998 100.288 87.2293 100.364C87.1587 100.44 87.0734 100.5 86.9785 100.541C86.8837 100.582 86.7813 100.604 86.6779 100.604C86.5745 100.604 86.4721 100.582 86.3773 100.541C86.2824 100.5 86.1971 100.44 86.1265 100.364C86.056 100.288 86.0018 100.199 85.9672 100.101C85.9327 100.004 85.9186 99.9004 85.9258 99.7972C85.9186 99.694 85.9327 99.5905 85.9672 99.493C86.0018 99.3955 86.056 99.3061 86.1265 99.2305C86.1971 99.1548 86.2824 99.0945 86.3773 99.0533C86.4721 99.012 86.5745 98.9908 86.6779 98.9908C86.7813 98.9908 86.8837 99.012 86.9785 99.0533C87.0734 99.0945 87.1587 99.1548 87.2293 99.2305C87.2998 99.3061 87.3541 99.3955 87.3886 99.493C87.4231 99.5905 87.4372 99.694 87.43 99.7972Z" fill="#65C9FF"/>
<path d="M89.7651 99.8082C89.7543 99.9554 89.7005 100.096 89.6104 100.213C89.5203 100.33 89.3979 100.418 89.2583 100.466C89.1187 100.514 88.968 100.52 88.8251 100.483C88.6821 100.446 88.5531 100.368 88.4541 100.259C88.355 100.149 88.2903 100.013 88.2679 99.8674C88.2455 99.7215 88.2664 99.5723 88.3281 99.4381C88.3897 99.304 88.4894 99.1909 88.6147 99.1129C88.74 99.0349 88.8855 98.9954 89.0331 98.9993C89.2366 99.0116 89.4273 99.1032 89.5641 99.2544C89.7009 99.4056 89.7731 99.6044 89.7651 99.8082Z" fill="#65C9FF"/>
<path d="M92.0965 99.8192C92.0857 99.9664 92.0319 100.107 91.9418 100.224C91.8517 100.341 91.7293 100.429 91.5897 100.477C91.4501 100.525 91.2995 100.531 91.1565 100.494C91.0136 100.457 90.8846 100.379 90.7855 100.27C90.6865 100.16 90.6217 100.024 90.5993 99.8784C90.5769 99.7325 90.5978 99.5832 90.6595 99.4491C90.7211 99.315 90.8208 99.2019 90.9461 99.1239C91.0714 99.0459 91.2169 99.0064 91.3645 99.0103C91.568 99.0226 91.7587 99.1142 91.8955 99.2654C92.0324 99.4166 92.1045 99.6154 92.0965 99.8192Z" fill="#65C9FF"/>
<path d="M94.4279 99.8265C94.4178 99.9739 94.3646 100.115 94.2749 100.233C94.1852 100.35 94.063 100.439 93.9234 100.487C93.7838 100.536 93.633 100.542 93.4898 100.506C93.3466 100.469 93.2172 100.391 93.1178 100.282C93.0184 100.173 92.9533 100.037 92.9307 99.8906C92.908 99.7446 92.9288 99.5951 92.9904 99.4608C93.0519 99.3264 93.1517 99.2131 93.2771 99.135C93.4025 99.0569 93.5482 99.0173 93.6959 99.0213C93.8988 99.0336 94.0889 99.1246 94.2256 99.275C94.3624 99.4255 94.435 99.6233 94.4279 99.8265Z" fill="#65C9FF"/>
<path d="M96.763 99.8375C96.753 99.9841 96.7004 100.125 96.6115 100.242C96.5227 100.359 96.4015 100.448 96.263 100.497C96.1244 100.546 95.9745 100.554 95.8317 100.519C95.6889 100.484 95.5594 100.408 95.4592 100.3C95.359 100.193 95.2924 100.058 95.2676 99.9132C95.2428 99.7683 95.261 99.6193 95.3198 99.4846C95.3786 99.3498 95.4756 99.2352 95.5987 99.1549C95.7218 99.0745 95.8657 99.0319 96.0127 99.0323C96.2189 99.0399 96.4136 99.1289 96.5542 99.2799C96.6948 99.4308 96.7699 99.6313 96.763 99.8375Z" fill="#65C9FF"/>
<path d="M99.0945 99.8484C99.1017 99.9516 99.0876 100.055 99.053 100.153C99.0185 100.25 98.9643 100.34 98.8937 100.415C98.8232 100.491 98.7378 100.551 98.643 100.592C98.5481 100.634 98.4458 100.655 98.3423 100.655C98.2389 100.655 98.1366 100.634 98.0417 100.592C97.9469 100.551 97.8615 100.491 97.791 100.415C97.7204 100.34 97.6662 100.25 97.6316 100.153C97.5971 100.055 97.583 99.9516 97.5902 99.8484C97.583 99.7453 97.5971 99.6417 97.6316 99.5442C97.6662 99.4467 97.7204 99.3574 97.791 99.2817C97.8615 99.2061 97.9469 99.1458 98.0417 99.1045C98.1366 99.0633 98.2389 99.042 98.3423 99.042C98.4458 99.042 98.5481 99.0633 98.643 99.1045C98.7378 99.1458 98.8232 99.2061 98.8937 99.2817C98.9643 99.3574 99.0185 99.4467 99.053 99.5442C99.0876 99.6417 99.1017 99.7453 99.0945 99.8484Z" fill="#65C9FF"/>
<path d="M101.426 99.8594C101.416 100.006 101.363 100.147 101.274 100.264C101.186 100.381 101.064 100.47 100.926 100.519C100.787 100.568 100.637 100.575 100.495 100.541C100.352 100.506 100.222 100.43 100.122 100.322C100.022 100.215 99.9552 100.08 99.9305 99.9352C99.9057 99.7903 99.9238 99.6413 99.9826 99.5065C100.041 99.3718 100.138 99.2572 100.262 99.1768C100.385 99.0965 100.529 99.0539 100.676 99.0542C100.882 99.0619 101.076 99.1509 101.217 99.3018C101.358 99.4527 101.433 99.6533 101.426 99.8594Z" fill="#65C9FF"/>
<path d="M103.757 99.8704C103.747 100.018 103.694 100.159 103.604 100.277C103.515 100.394 103.392 100.482 103.253 100.531C103.113 100.58 102.962 100.586 102.819 100.55C102.676 100.513 102.547 100.435 102.447 100.326C102.348 100.217 102.283 100.081 102.26 99.9345C102.237 99.7885 102.258 99.639 102.32 99.5047C102.381 99.3703 102.481 99.2571 102.606 99.1789C102.732 99.1008 102.878 99.0613 103.025 99.0652C103.228 99.0775 103.418 99.1685 103.555 99.319C103.692 99.4694 103.764 99.6672 103.757 99.8704Z" fill="#65C9FF"/>
<g opacity="0.2">
<path d="M85.0985 99.7862C85.0877 99.9335 85.034 100.074 84.9439 100.191C84.8538 100.308 84.7314 100.396 84.5918 100.444C84.4522 100.492 84.3015 100.498 84.1586 100.461C84.0156 100.424 83.8866 100.346 83.7876 100.237C83.6885 100.128 83.6238 99.9914 83.6014 99.8455C83.579 99.6996 83.5999 99.5503 83.6616 99.4162C83.7232 99.282 83.8229 99.169 83.9482 99.091C84.0735 99.013 84.219 98.9735 84.3665 98.9774C84.5705 98.9887 84.7617 99.08 84.8987 99.2314C85.0357 99.3829 85.1075 99.5822 85.0985 99.7862Z" fill="white"/>
<path d="M87.4299 99.7972C87.4371 99.9004 87.423 100.004 87.3885 100.101C87.3539 100.199 87.2997 100.288 87.2292 100.364C87.1586 100.44 87.0733 100.5 86.9784 100.541C86.8835 100.582 86.7812 100.604 86.6778 100.604C86.5744 100.604 86.472 100.582 86.3772 100.541C86.2823 100.5 86.197 100.44 86.1264 100.364C86.0559 100.288 86.0016 100.199 85.9671 100.101C85.9326 100.004 85.9185 99.9004 85.9257 99.7972C85.9185 99.694 85.9326 99.5905 85.9671 99.493C86.0016 99.3955 86.0559 99.3061 86.1264 99.2305C86.197 99.1548 86.2823 99.0945 86.3772 99.0533C86.472 99.012 86.5744 98.9908 86.6778 98.9908C86.7812 98.9908 86.8835 99.012 86.9784 99.0533C87.0733 99.0945 87.1586 99.1548 87.2292 99.2305C87.2997 99.3061 87.3539 99.3955 87.3885 99.493C87.423 99.5905 87.4371 99.694 87.4299 99.7972Z" fill="white"/>
<path d="M89.7651 99.8082C89.7543 99.9554 89.7005 100.096 89.6104 100.213C89.5203 100.33 89.3979 100.418 89.2583 100.466C89.1187 100.514 88.968 100.52 88.8251 100.483C88.6821 100.446 88.5531 100.368 88.4541 100.259C88.355 100.149 88.2903 100.013 88.2679 99.8674C88.2455 99.7215 88.2664 99.5723 88.3281 99.4381C88.3897 99.304 88.4894 99.1909 88.6147 99.1129C88.74 99.0349 88.8855 98.9954 89.0331 98.9993C89.2366 99.0116 89.4273 99.1032 89.5641 99.2544C89.7009 99.4056 89.7731 99.6044 89.7651 99.8082Z" fill="white"/>
<path d="M92.0965 99.8192C92.0857 99.9664 92.0319 100.107 91.9418 100.224C91.8517 100.341 91.7293 100.429 91.5897 100.477C91.4501 100.525 91.2995 100.531 91.1565 100.494C91.0136 100.457 90.8846 100.379 90.7855 100.27C90.6865 100.16 90.6217 100.024 90.5993 99.8784C90.5769 99.7325 90.5978 99.5832 90.6595 99.4491C90.7211 99.315 90.8208 99.2019 90.9461 99.1239C91.0714 99.0459 91.2169 99.0064 91.3645 99.0103C91.568 99.0226 91.7587 99.1142 91.8955 99.2654C92.0324 99.4166 92.1045 99.6154 92.0965 99.8192Z" fill="white"/>
<path d="M94.4279 99.8265C94.4178 99.9739 94.3646 100.115 94.2749 100.233C94.1852 100.35 94.063 100.439 93.9234 100.487C93.7838 100.536 93.633 100.542 93.4898 100.506C93.3466 100.469 93.2172 100.391 93.1178 100.282C93.0184 100.173 92.9533 100.037 92.9307 99.8906C92.908 99.7446 92.9288 99.5951 92.9904 99.4608C93.0519 99.3264 93.1517 99.2131 93.2771 99.135C93.4025 99.0569 93.5482 99.0173 93.6959 99.0213C93.8988 99.0336 94.0889 99.1246 94.2256 99.275C94.3624 99.4255 94.435 99.6233 94.4279 99.8265Z" fill="white"/>
<path d="M96.763 99.8375C96.753 99.9841 96.7004 100.125 96.6115 100.242C96.5227 100.359 96.4015 100.448 96.263 100.497C96.1244 100.546 95.9745 100.554 95.8317 100.519C95.6889 100.484 95.5594 100.408 95.4592 100.3C95.359 100.193 95.2924 100.058 95.2676 99.9132C95.2428 99.7683 95.261 99.6193 95.3198 99.4846C95.3786 99.3498 95.4756 99.2352 95.5987 99.1549C95.7218 99.0745 95.8657 99.0319 96.0127 99.0323C96.2189 99.0399 96.4136 99.1289 96.5542 99.2799C96.6948 99.4308 96.7699 99.6313 96.763 99.8375Z" fill="white"/>
<path d="M99.0943 99.8484C99.1015 99.9516 99.0874 100.055 99.0529 100.153C99.0184 100.25 98.9641 100.34 98.8936 100.415C98.823 100.491 98.7377 100.551 98.6428 100.592C98.548 100.634 98.4456 100.655 98.3422 100.655C98.2388 100.655 98.1364 100.634 98.0416 100.592C97.9467 100.551 97.8614 100.491 97.7908 100.415C97.7203 100.34 97.6661 100.25 97.6315 100.153C97.597 100.055 97.5829 99.9516 97.5901 99.8484C97.5829 99.7453 97.597 99.6417 97.6315 99.5442C97.6661 99.4467 97.7203 99.3574 97.7908 99.2817C97.8614 99.2061 97.9467 99.1458 98.0416 99.1045C98.1364 99.0633 98.2388 99.042 98.3422 99.042C98.4456 99.042 98.548 99.0633 98.6428 99.1045C98.7377 99.1458 98.823 99.2061 98.8936 99.2817C98.9641 99.3574 99.0184 99.4467 99.0529 99.5442C99.0874 99.6417 99.1015 99.7453 99.0943 99.8484Z" fill="white"/>
<path d="M101.426 99.8594C101.416 100.006 101.363 100.147 101.274 100.264C101.186 100.381 101.064 100.47 100.926 100.519C100.787 100.568 100.637 100.575 100.495 100.541C100.352 100.506 100.222 100.43 100.122 100.322C100.022 100.215 99.9552 100.08 99.9305 99.9352C99.9057 99.7903 99.9238 99.6413 99.9826 99.5065C100.041 99.3718 100.138 99.2572 100.262 99.1768C100.385 99.0965 100.529 99.0539 100.676 99.0542C100.882 99.0619 101.076 99.1509 101.217 99.3018C101.358 99.4527 101.433 99.6533 101.426 99.8594Z" fill="white"/>
<path d="M103.757 99.8704C103.747 100.018 103.694 100.159 103.604 100.277C103.515 100.394 103.392 100.482 103.253 100.531C103.113 100.58 102.962 100.586 102.819 100.55C102.676 100.513 102.547 100.435 102.447 100.326C102.348 100.217 102.283 100.081 102.26 99.9345C102.237 99.7885 102.258 99.639 102.32 99.5047C102.381 99.3703 102.481 99.2571 102.606 99.1789C102.732 99.1008 102.878 99.0613 103.025 99.0652C103.228 99.0775 103.418 99.1685 103.555 99.319C103.692 99.4694 103.764 99.6672 103.757 99.8704Z" fill="white"/>
</g>
<path d="M100.445 47.0346C100.699 46.9227 100.915 46.7384 101.065 46.5048C101.216 46.2712 101.294 45.9985 101.29 45.7207C101.3 45.5401 101.273 45.3595 101.21 45.1898C101.147 45.0202 101.051 44.8651 100.926 44.7339C100.802 44.6027 100.652 44.4982 100.486 44.4269C100.32 44.3555 100.141 44.3187 99.96 44.3187C99.7792 44.3187 99.6002 44.3555 99.4341 44.4269C99.268 44.4982 99.1181 44.6027 98.9936 44.7339C98.8691 44.8651 98.7727 45.0202 98.7101 45.1898C98.6475 45.3595 98.6201 45.5401 98.6296 45.7207C98.624 46.0013 98.7017 46.2772 98.8528 46.5137C99.004 46.7501 99.2218 46.9365 99.4787 47.0493C97.4291 47.3567 97.5206 49.582 97.5206 49.582L102.366 49.604C102.366 49.604 102.48 47.3384 100.445 47.0346Z" fill="#65C9FF"/>
<path opacity="0.1" d="M100.445 47.0346C100.699 46.9227 100.915 46.7384 101.065 46.5048C101.216 46.2712 101.294 45.9985 101.29 45.7207C101.3 45.5401 101.273 45.3595 101.21 45.1898C101.147 45.0202 101.051 44.8651 100.926 44.7339C100.802 44.6027 100.652 44.4982 100.486 44.4269C100.32 44.3555 100.141 44.3187 99.96 44.3187C99.7792 44.3187 99.6002 44.3555 99.4341 44.4269C99.268 44.4982 99.1181 44.6027 98.9936 44.7339C98.8691 44.8651 98.7727 45.0202 98.7101 45.1898C98.6475 45.3595 98.6201 45.5401 98.6296 45.7207C98.624 46.0013 98.7017 46.2772 98.8528 46.5137C99.004 46.7501 99.2218 46.9365 99.4787 47.0493C97.4291 47.3567 97.5206 49.582 97.5206 49.582L102.366 49.604C102.366 49.604 102.48 47.3384 100.445 47.0346Z" fill="black"/>
<path d="M108.319 51.0392L91.048 50.9608L91.0386 53.0251L108.31 53.1034L108.319 51.0392Z" fill="#65C9FF"/>
<path opacity="0.2" d="M108.319 51.0392L91.048 50.9608L91.0386 53.0251L108.31 53.1034L108.319 51.0392Z" fill="white"/>
<path d="M62.6409 164.092V160.963L57.0301 160.923L56.9825 165.655L57.3302 165.681C58.8784 165.78 65.2066 165.926 66.246 165.604C67.4026 165.245 62.6409 164.092 62.6409 164.092Z" fill="#65C9FF"/>
<path d="M66.3777 165.311C66.3777 165.362 64.2768 165.406 61.6892 165.406C59.1016 165.406 57.0007 165.362 57.0007 165.311C57.0007 165.26 59.1016 165.216 61.6892 165.216C64.2768 165.216 66.3777 165.26 66.3777 165.311Z" fill="#263238"/>
<path d="M62.7396 164.733C62.6921 164.707 62.7396 164.543 62.8531 164.367C62.9666 164.191 63.1203 164.118 63.1569 164.155C63.1935 164.191 63.1166 164.33 63.0068 164.48C62.897 164.63 62.7872 164.759 62.7396 164.733Z" fill="#263238"/>
<path d="M63.0984 164.938C63.0471 164.938 63.0727 164.733 63.1825 164.539C63.2923 164.345 63.4387 164.228 63.479 164.257C63.5193 164.286 63.4534 164.451 63.3509 164.623C63.2484 164.795 63.1459 164.956 63.0984 164.938Z" fill="#263238"/>
<path d="M58.6917 165.297C58.6698 165.297 58.5856 165.231 58.4648 165.092C58.3174 164.913 58.1531 164.749 57.9744 164.601C57.7986 164.461 57.5891 164.369 57.3668 164.334C57.1948 164.312 57.085 164.334 57.074 164.312C57.063 164.29 57.1692 164.213 57.3705 164.199C57.6361 164.193 57.8953 164.281 58.1025 164.447C58.2966 164.606 58.4603 164.798 58.5856 165.015C58.6698 165.176 58.7137 165.282 58.6917 165.297Z" fill="#263238"/>
<path d="M62.758 164.144C62.7836 164.188 62.6884 164.297 62.5274 164.356C62.3663 164.415 62.2236 164.393 62.2163 164.356C62.209 164.319 62.3224 164.242 62.4615 164.191C62.6006 164.14 62.7287 164.1 62.758 164.144Z" fill="#263238"/>
<path d="M62.6701 163.84C62.6701 163.895 62.5237 163.939 62.3334 163.942C62.143 163.946 61.993 163.902 61.9966 163.851C62.0003 163.8 62.1504 163.752 62.3334 163.748C62.5164 163.745 62.6628 163.789 62.6701 163.84Z" fill="#263238"/>
<path d="M76.4573 164.092V160.963L70.8465 160.923L70.799 165.608L71.1466 165.633C72.6948 165.732 79.0266 165.926 80.0624 165.604C81.219 165.245 76.4573 164.092 76.4573 164.092Z" fill="#65C9FF"/>
<path d="M80.1942 165.319C80.1942 165.37 78.097 165.414 75.5057 165.414C72.9144 165.414 70.8209 165.37 70.8209 165.319C70.8209 165.267 72.9181 165.223 75.5057 165.223C78.0933 165.223 80.1942 165.267 80.1942 165.319Z" fill="#263238"/>
<path d="M76.5562 164.733C76.5123 164.707 76.5562 164.543 76.6697 164.367C76.7831 164.191 76.9368 164.118 76.9734 164.155C77.01 164.191 76.9332 164.33 76.8234 164.48C76.7136 164.63 76.6038 164.759 76.5562 164.733Z" fill="#263238"/>
<path d="M76.9148 164.938C76.8673 164.938 76.8892 164.733 77.0027 164.539C77.1161 164.345 77.2589 164.228 77.2991 164.257C77.3394 164.286 77.2699 164.451 77.1674 164.623C77.0649 164.795 76.9661 164.956 76.9148 164.938Z" fill="#263238"/>
<path d="M72.5083 165.297C72.4863 165.297 72.4058 165.231 72.2813 165.092C72.1339 164.913 71.9697 164.749 71.7909 164.601C71.6151 164.461 71.4057 164.369 71.1833 164.334C71.015 164.312 70.9015 164.334 70.8905 164.312C70.8796 164.29 70.9857 164.213 71.187 164.199C71.4527 164.193 71.7118 164.281 71.919 164.447C72.1141 164.605 72.278 164.797 72.4021 165.015C72.4863 165.176 72.5302 165.282 72.5083 165.297Z" fill="#263238"/>
<path d="M76.5745 164.144C76.6001 164.188 76.5049 164.297 76.3439 164.356C76.1829 164.415 76.0401 164.393 76.0328 164.356C76.0255 164.319 76.1389 164.242 76.278 164.191C76.4171 164.14 76.5452 164.1 76.5745 164.144Z" fill="#263238"/>
<path d="M76.4939 163.84C76.4939 163.895 76.3475 163.939 76.1572 163.942C75.9669 163.946 75.8205 163.902 75.8242 163.851C75.8278 163.8 75.9742 163.752 76.1572 163.748C76.3402 163.745 76.4939 163.789 76.4939 163.84Z" fill="#263238"/>
<path d="M97.129 71.165C96.9826 71.015 96.6203 71.0882 96.6203 71.0882C96.6566 70.8775 96.6566 70.6621 96.6203 70.4513C96.5544 70.2464 96.0932 70.2866 96.0932 70.2866C96.072 70.1141 96.072 69.9395 96.0932 69.7669C96.0969 69.7287 96.0887 69.6902 96.0697 69.6568C96.0507 69.6234 96.0219 69.5967 95.9871 69.5803C95.7689 69.4913 95.5346 69.4489 95.299 69.4558C95.0172 69.2545 96.1591 67.6551 96.5837 67.1427C97.0083 66.6303 96.9314 66.2314 96.5544 66.2314C96.2945 66.2314 94.9623 67.7686 94.5524 68.2846C94.1425 68.8007 93.0554 70.2354 93.0188 69.0898C92.9822 67.9442 92.5211 67.0805 92.2319 66.9341C91.9428 66.7877 91.6354 67.1317 91.7928 67.4501C91.931 67.8119 92.0173 68.1914 92.0489 68.5774C92.0887 68.8849 92.0751 69.1969 92.0087 69.4997C91.8873 70.0632 91.7221 70.6163 91.5146 71.1541H91.4853C91.4853 71.1541 83.4992 78.8144 82.9209 79.3598C82.4048 79.8502 72.0251 78.7778 69.9426 78.5582C69.2349 78.4547 68.5203 78.4057 67.8051 78.4118C66.9011 78.4521 66.74 78.5802 65.8397 78.5912C63.5659 78.6164 61.2974 78.8159 59.0541 79.1878C58.0383 79.3605 57.0894 79.8088 56.3111 80.4839C55.5327 81.159 54.9547 82.035 54.6401 83.0161C52.5429 89.5675 47.7922 105.075 46.9541 113.786C46.3207 114.934 45.749 116.116 45.2412 117.325C44.6519 118.928 44.7947 118.983 44.9923 119.02C45.5267 119.118 46.1342 116.242 46.3612 116.937C46.5881 117.632 45.2083 120.366 45.7683 120.447C46.5003 120.549 47.0822 117.519 47.1517 117.277C47.2213 117.036 47.5836 117.113 47.5177 117.34C47.4116 117.662 46.3831 121.076 47.1005 121.186C47.4958 121.245 47.5397 120.524 47.5397 120.524C47.5397 120.524 48.2717 117.255 48.6048 117.321C48.9378 117.387 48.5828 119.316 48.4144 119.96C48.2461 120.604 48.4803 120.93 48.8243 120.773C49.0586 120.663 49.6186 118.705 49.7723 118.068C49.926 117.431 50.3103 115.667 50.8264 116.688C51.3424 117.709 52.1257 118.302 52.4478 118.317C52.5203 118.308 52.5887 118.279 52.6442 118.231C52.6996 118.183 52.7396 118.12 52.7588 118.05C52.7781 117.979 52.7759 117.905 52.7524 117.836C52.7289 117.766 52.6853 117.706 52.6271 117.662C52.3501 117.391 52.1123 117.083 51.9207 116.747C51.75 116.485 51.6261 116.195 51.5547 115.89C51.4072 115.283 51.3214 114.663 51.2985 114.038L51.2399 113.672C52.0598 109.613 54.4205 97.7 57.8279 90.0909L59.2261 92.9677L59.8336 95.0978L56.1078 104.295L71.9995 104.087L69.6278 94.9587L72.5082 85.4427C75.6229 85.5122 83.62 85.6294 84.9522 85.0255C86.6285 84.2935 95.299 73.3427 95.299 73.3427C95.8642 72.9036 96.4055 72.4344 96.9204 71.9373C96.9204 71.9373 97.4475 71.4944 97.129 71.165Z" fill="#FFBE9D"/>
<path d="M55.4086 97.4988C55.8698 95.925 58.2378 88.1438 58.2378 88.1438C58.2378 88.1438 59.4017 94.4866 59.0943 95.2515C58.8115 95.9064 58.4774 96.5378 58.0951 97.1401C55.4086 101.228 55.76 103.274 55.76 103.274L71.9921 102.78C72.0287 100.511 70.6855 95.2332 70.4073 94.3914C70.1292 93.5496 71.0551 90.7936 71.0551 90.7936C71.0551 90.7936 72.8852 88.9307 72.8193 87.9718C72.7845 87.1104 72.678 86.2534 72.5008 85.4098L82.3828 85.7758L82.0718 79.078L67.8783 77.6579C67.3842 79.0523 62.9153 78.3679 62.9153 78.3679C58.0914 78.529 57.7913 79.4147 55.7856 80.9738C53.7799 82.533 50.4603 95.914 50.4603 95.914L55.4086 97.4988Z" fill="#65C9FF"/>
<path d="M65.0052 95.914C64.7239 95.9642 64.4374 95.979 64.1524 95.9579C63.6217 95.9579 62.8934 95.9213 62.0918 95.8408C61.2903 95.7602 60.5656 95.6468 60.0496 95.5443C59.765 95.5077 59.486 95.4364 59.2188 95.332C59.5049 95.3321 59.7904 95.3591 60.0715 95.4126C60.5913 95.4784 61.3123 95.5699 62.1101 95.6504C62.908 95.731 63.6327 95.7859 64.1561 95.8225C64.4414 95.8261 64.7257 95.8567 65.0052 95.914Z" fill="#263238"/>
<path d="M66.1178 94.5341C65.8364 94.672 65.5389 94.7741 65.2321 94.8379C63.7719 95.2216 62.2654 95.4002 60.7559 95.3686C60.4436 95.3788 60.1312 95.3493 59.8263 95.2808C60.1346 95.2419 60.4453 95.226 60.7559 95.2332C61.3306 95.2149 62.1211 95.1746 62.9922 95.0722C63.8633 94.9697 64.6392 94.8233 65.1882 94.7062C65.4931 94.6247 65.8039 94.5672 66.1178 94.5341Z" fill="#263238"/>
<path d="M71.5786 88.378C71.5712 88.6571 71.5331 88.9344 71.4651 89.2052C71.3699 89.7139 71.2235 90.4093 71.0369 91.1706C70.8502 91.9319 70.6709 92.6346 70.5098 93.1104C70.4451 93.3828 70.3493 93.6468 70.2244 93.8973C70.2448 93.6191 70.2963 93.3441 70.3781 93.0775C70.5172 92.5065 70.6745 91.8477 70.8502 91.1267C71.0259 90.4057 71.1943 89.7469 71.3333 89.1759C71.3829 88.9011 71.4652 88.6332 71.5786 88.378Z" fill="#263238"/>
<path d="M55.5808 96.5654C54.734 96.4347 53.8984 96.2402 53.081 95.9835C52.2457 95.7882 51.4261 95.5313 50.6288 95.2149C51.4751 95.3478 52.3106 95.5423 53.1286 95.7968C53.964 95.9915 54.7837 96.2484 55.5808 96.5654Z" fill="#263238"/>
<path d="M72.6765 85.3292C72.5385 85.353 72.3973 85.353 72.2593 85.3292C71.877 85.29 71.5016 85.2002 71.143 85.0621C70.5443 84.8371 69.9992 84.4893 69.5429 84.0412C69.0865 83.593 68.7289 83.0544 68.4931 82.4598C68.2325 81.8058 68.1212 81.1018 68.1674 80.3992C68.1837 79.8197 68.357 79.2556 68.6688 78.7669C68.8881 78.4376 69.2157 78.1955 69.5948 78.0824C69.6961 78.0545 69.8008 78.0409 69.9059 78.0422C69.9791 78.0422 70.0157 78.0422 70.0157 78.0422C70.0157 78.0422 69.862 78.0422 69.6168 78.141C69.269 78.2695 68.974 78.5103 68.7786 78.8254C68.2809 79.6087 68.1418 81.0397 68.6725 82.3756C68.9195 83.0055 69.3062 83.5711 69.8034 84.0299C70.2109 84.4054 70.6802 84.7075 71.1906 84.923C71.6696 85.1123 72.1679 85.2485 72.6765 85.3292Z" fill="#263238"/>
<path d="M81.208 85.644C81.1165 84.5216 81.0871 83.3951 81.1202 82.2695C81.0915 81.1448 81.1257 80.0195 81.2227 78.8986C81.3143 80.0198 81.3436 81.1451 81.3105 82.2695C81.3413 83.3954 81.3071 84.5221 81.208 85.644Z" fill="#263238"/>
<path d="M67.7831 78.0678C67.8234 77.2516 67.9075 76.3293 67.9075 76.3293C67.9075 76.3293 69.9279 76.106 70.0487 74.0198C70.1694 71.9336 70.0487 67.1207 70.0487 67.1207L66.3887 65.2468L62.326 68.442L62.9519 78.873L66.6778 79.1109C66.9626 79.1188 67.2389 79.0134 67.4461 78.8179C67.6533 78.6223 67.7745 78.3526 67.7831 78.0678Z" fill="#FFBE9D"/>
<path d="M68.1455 72.3692C68.1455 72.3692 68.1455 72.4094 68.1126 72.457C68.0854 72.4915 68.0502 72.5189 68.01 72.5368C67.9698 72.5546 67.9259 72.5624 67.882 72.5595C67.6478 72.5595 67.4209 72.2887 67.3403 71.9739C67.3021 71.8213 67.3021 71.6617 67.3403 71.5091C67.3479 71.4425 67.3719 71.3788 67.4102 71.3239C67.4486 71.2689 67.5 71.2244 67.5599 71.1943C67.6092 71.174 67.6644 71.174 67.7137 71.1943C67.7502 71.2124 67.7797 71.242 67.7978 71.2785C67.8235 71.3407 67.7978 71.381 67.7978 71.3773C67.7978 71.3737 67.7978 71.3407 67.7612 71.3041C67.7421 71.2779 67.714 71.2597 67.6822 71.2529C67.6505 71.2462 67.6174 71.2514 67.5892 71.2675C67.5443 71.2947 67.507 71.3327 67.4808 71.3782C67.4546 71.4236 67.4402 71.4749 67.4392 71.5274C67.4084 71.6635 67.4084 71.8048 67.4392 71.941C67.5124 72.2264 67.71 72.457 67.8857 72.479C67.9201 72.4836 67.955 72.4812 67.9884 72.4717C68.0218 72.4623 68.0528 72.4461 68.0797 72.4241C68.1236 72.3948 68.1382 72.3655 68.1455 72.3692Z" fill="#EB996E"/>
<path d="M71.3041 65.9935C71.0222 65.0345 70.0011 64.5587 69.0714 64.2952C67.655 63.8926 66.1251 63.7169 64.7417 64.2257C63.3582 64.7344 61.6965 65.6275 61.6965 67.1537C60.8804 67.0878 60.4119 67.8015 60.0898 68.6872C59.8839 69.2268 59.7605 69.7944 59.7238 70.3708C59.6213 72.3692 59.0613 75.1288 57.7657 76.5928C57.0337 77.409 56.0199 77.9726 55.6026 78.9901C55.2366 79.8722 55.427 80.9189 55.0866 81.812C54.7828 82.5989 54.113 83.1589 53.6226 83.8433C53.1229 84.6197 52.8289 85.5104 52.7681 86.4317C52.7072 87.353 52.8816 88.2746 53.2749 89.11C53.671 89.924 54.2286 90.6488 54.9138 91.2402C55.5991 91.8317 56.3975 92.2775 57.2606 92.5504C58.9702 93.0705 60.7933 93.0883 62.5127 92.6017C63.8032 92.2931 65.0069 91.6962 66.0336 90.8558C67.0842 89.9979 67.8057 88.8031 68.0759 87.474C68.3358 85.9807 67.9185 84.4618 67.6074 82.9759C66.6339 78.2801 66.912 78.0349 68.1418 73.6758C68.1711 73.5989 68.1857 73.5184 68.2077 73.4416C68.2296 73.3647 68.2406 73.3281 68.2553 73.2695C68.2902 73.0972 68.3086 72.922 68.3102 72.7462C68.1305 72.813 67.9356 72.8271 67.7482 72.7869C67.5608 72.7467 67.3888 72.6538 67.2524 72.5192C67.1157 72.3757 67.0204 72.1979 66.9765 72.0046C66.9327 71.8113 66.9421 71.6097 67.0036 71.4212C67.0899 71.2151 67.2186 71.0295 67.3812 70.8763C67.5439 70.7231 67.7369 70.6057 67.9478 70.5319C68.3541 70.3635 68.7896 70.2757 69.1886 70.089C70.034 69.6864 70.6196 68.8519 71.0186 67.9772C71.3466 67.3709 71.4478 66.6676 71.3041 65.9935Z" fill="#263238"/>
<path d="M68.2919 72.468C68.3692 72.5823 68.4331 72.7051 68.4822 72.834C68.592 73.0646 68.7384 73.3903 68.8994 73.7673L68.9287 73.8368H68.8519L68.4859 73.8698C68.2333 73.8698 68.021 73.9174 67.7722 73.9137C67.7505 73.9088 67.7304 73.8986 67.7138 73.8838C67.6971 73.8691 67.6845 73.8504 67.677 73.8295C67.6661 73.7962 67.6661 73.7603 67.677 73.727C67.6855 73.6777 67.6965 73.6288 67.7099 73.5806L67.7758 73.3208C67.8089 73.1474 67.8605 72.9781 67.9295 72.8157C67.9227 72.9924 67.897 73.1679 67.8527 73.3391L67.8014 73.5989C67.7831 73.6868 67.7502 73.8222 67.8014 73.8112C67.9844 73.8112 68.2443 73.771 68.4859 73.7563L68.8519 73.7234L68.8043 73.8039C68.6469 73.4379 68.5151 73.0939 68.4383 72.856C68.3709 72.7345 68.3215 72.6038 68.2919 72.468Z" fill="#65C9FF"/>
<path d="M55.76 103.274L71.9921 102.78L79.0559 130.355L77.7566 161.984H69.1739L70.2243 131.028L63.9474 111.831L64.9137 163.21L56.2395 163.338L55.3281 115.045C55.2879 113.702 54.8487 110.675 55.0134 109.342L55.76 103.274Z" fill="#263238"/>
<path d="M66.1068 112.223C65.8411 112.24 65.5744 112.224 65.3126 112.175C64.8222 112.117 64.1524 112.014 63.4167 111.868C62.6811 111.722 62.0223 111.553 61.5465 111.418C61.2921 111.362 61.0461 111.273 60.8145 111.154C60.8145 111.099 62.0076 111.385 63.4716 111.681C64.9356 111.978 66.1141 112.168 66.1068 112.223Z" fill="#455A64"/>
<path d="M77.6688 160.249C77.6688 160.301 75.7254 160.345 73.3281 160.345C70.9308 160.345 68.9836 160.301 68.9836 160.249C68.9836 160.198 70.9271 160.154 73.3281 160.154C75.729 160.154 77.6688 160.195 77.6688 160.249Z" fill="#455A64"/>
<path d="M64.8368 161.874C64.8368 161.929 62.9483 161.97 60.6205 161.97C58.2927 161.97 56.4078 161.929 56.4078 161.874C56.4078 161.82 58.2964 161.779 60.6205 161.779C62.9446 161.779 64.8368 161.823 64.8368 161.874Z" fill="#455A64"/>
<path d="M63.7169 161.743C63.6656 161.743 63.4387 150.518 63.2081 136.672C62.9776 122.826 62.8421 111.593 62.8897 111.593C62.9373 111.593 63.1715 122.815 63.3985 136.668C63.6254 150.521 63.7718 161.743 63.7169 161.743Z" fill="#455A64"/>
<path d="M76.5159 160.249C76.5119 160.2 76.5119 160.149 76.5159 160.099V159.66C76.5159 159.265 76.5452 158.698 76.5672 157.977C76.6184 156.513 76.6916 154.386 76.7831 151.78C76.9807 146.539 77.2589 139.314 77.5627 131.339C77.5627 131.262 77.5627 131.189 77.5627 131.123V131.149C75.6412 123.463 73.9027 116.487 72.64 111.44L71.176 105.47C71.0076 104.771 70.8795 104.226 70.788 103.845C70.7441 103.666 70.7148 103.527 70.6892 103.421C70.6749 103.373 70.6663 103.324 70.6636 103.274C70.6826 103.32 70.6973 103.368 70.7075 103.417C70.7368 103.519 70.7734 103.659 70.8246 103.834C70.9234 104.2 71.0662 104.757 71.2492 105.452C71.6152 106.865 72.1312 108.9 72.7754 111.407C74.0491 116.45 75.8059 123.408 77.753 131.105V131.13C77.753 131.196 77.753 131.273 77.753 131.346C77.4273 139.322 77.1308 146.543 76.9148 151.784C76.8014 154.393 76.7062 156.505 76.6403 157.977C76.6037 158.709 76.5745 159.265 76.5562 159.66C76.5562 159.847 76.5342 159.993 76.5306 160.099C76.5311 160.15 76.5262 160.2 76.5159 160.249Z" fill="#455A64"/>
<path d="M73.716 130.479C73.0995 130.682 72.4645 130.823 71.8201 130.9C71.0296 131.035 70.3561 131.13 70.0524 131.145V131.072C70.1512 131.101 70.2024 131.12 70.2024 131.134C70.2024 131.149 70.1402 131.134 70.0377 131.134H69.8181L70.0377 131.068C70.3232 130.984 70.9966 130.845 71.7872 130.702C72.4212 130.565 73.0673 130.49 73.716 130.479Z" fill="#455A64"/>
<path d="M73.5659 131.529C72.995 131.556 72.4229 131.53 71.8567 131.453C71.285 131.441 70.7154 131.378 70.1548 131.266C71.2986 131.173 72.45 131.262 73.5659 131.529Z" fill="#455A64"/>
<path opacity="0.2" d="M55.6906 103.856C55.8828 104.103 56.1249 104.307 56.4012 104.453C56.6774 104.6 56.9815 104.687 57.2936 104.709C57.9474 104.786 58.6086 104.774 59.2591 104.672C63.4498 104.208 67.8893 103.779 71.9922 102.78C66.6815 103.077 61.0708 102.978 55.7601 103.274L55.7052 103.728" fill="black"/>
<g opacity="0.2">
<path d="M61.1622 111.341L64.1561 122.958L63.9475 111.831L61.1622 111.341Z" fill="black"/>
</g>
</svg>
