<svg width="24" height="23" viewBox="0 0 24 23" fill="none" xmlns="http://www.w3.org/2000/svg">
<path d="M0 5C0 2.23858 2.23858 0 5 0H19C21.7614 0 24 2.23858 24 5V18C24 20.7614 21.7614 23 19 23H5C2.23858 23 0 20.7614 0 18V5Z" fill="#E1F2FF"/>
<path d="M9.03489 8.59469V6.32018H10.2652V8.59469H9.03489ZM9.03489 15.5209V11.7751H10.2652V15.5209H9.03489ZM7.3383 19.6554C6.97026 19.6554 6.6552 19.5268 6.39312 19.2697C6.13104 19.0125 6 18.7033 6 18.3422V5.31786C6 4.95546 6.13104 4.64521 6.39312 4.38713C6.6552 4.12904 6.97026 4 7.3383 4H17.4683C17.8376 4 18.1538 4.12904 18.4168 4.38713C18.6798 4.64521 18.8113 4.95546 18.8113 5.31786V18.3422C18.8113 18.7033 18.6798 19.0125 18.4168 19.2697C18.1538 19.5268 17.8376 19.6554 17.4683 19.6554H7.3383ZM7.3383 18.3422H17.4683V10.7535H7.3383V18.3422ZM7.3383 9.59701H17.4683V5.31786H7.3383V9.59701Z" fill="#65C9FF"/>
</svg>
