<svg width="13" height="13" viewBox="0 0 13 13" fill="none" xmlns="http://www.w3.org/2000/svg">
<path d="M13 6.5C13 10.0899 10.0899 13 6.5 13C2.91015 13 0 10.0899 0 6.5C0 2.91015 2.91015 0 6.5 0C10.0899 0 13 2.91015 13 6.5Z" fill="#E4F3FF"/>
<g clip-path="url(#clip0_65_351)">
<path d="M6.77038 6.95834L5.71621 8.00792C5.67325 8.05053 5.63915 8.10122 5.61588 8.15707C5.59261 8.21293 5.58063 8.27283 5.58063 8.33334C5.58063 8.39384 5.59261 8.45375 5.61588 8.5096C5.63915 8.56546 5.67325 8.61615 5.71621 8.65876C5.75882 8.70171 5.80951 8.73581 5.86536 8.75908C5.92121 8.78235 5.98112 8.79433 6.04163 8.79433C6.10213 8.79433 6.16204 8.78235 6.21789 8.75908C6.27374 8.73581 6.32443 8.70171 6.36704 8.65876L8.20038 6.82542C8.2421 6.78183 8.27481 6.73043 8.29663 6.67417C8.34247 6.56259 8.34247 6.43743 8.29663 6.32584C8.27481 6.26958 8.2421 6.21818 8.20038 6.17459L6.36704 4.34126C6.32431 4.29852 6.27358 4.26462 6.21774 4.24149C6.1619 4.21837 6.10206 4.20646 6.04163 4.20646C5.98119 4.20646 5.92135 4.21837 5.86551 4.24149C5.80968 4.26462 5.75894 4.29852 5.71621 4.34126C5.67347 4.38399 5.63958 4.43472 5.61645 4.49056C5.59332 4.54639 5.58142 4.60624 5.58142 4.66667C5.58142 4.72711 5.59332 4.78695 5.61645 4.84279C5.63958 4.89862 5.67347 4.94935 5.71621 4.99209L6.77038 6.04167H2.37496C2.2534 6.04167 2.13682 6.08996 2.05087 6.17592C1.96491 6.26187 1.91663 6.37845 1.91663 6.50001C1.91663 6.62156 1.96491 6.73814 2.05087 6.8241C2.13682 6.91005 2.2534 6.95834 2.37496 6.95834H6.77038ZM6.49996 1.91667C5.64338 1.91285 4.80286 2.14914 4.07376 2.59876C3.34465 3.04837 2.75613 3.69331 2.37496 4.46042C2.32026 4.56982 2.31126 4.69647 2.34994 4.81251C2.38862 4.92855 2.47181 5.02447 2.58121 5.07917C2.69061 5.13387 2.81726 5.14287 2.9333 5.10419C3.04934 5.06552 3.14526 4.98232 3.19996 4.87292C3.48971 4.28778 3.93047 3.79062 4.47667 3.43283C5.02287 3.07504 5.65471 2.8696 6.30689 2.83773C6.95907 2.80587 7.60792 2.94874 8.1864 3.25157C8.76489 3.55441 9.25201 4.00623 9.59743 4.56034C9.94284 5.11445 10.134 5.75074 10.1512 6.40347C10.1684 7.0562 10.011 7.70168 9.69524 8.27321C9.37947 8.84474 8.91681 9.32158 8.35508 9.65445C7.79334 9.98732 7.15291 10.1642 6.49996 10.1667C5.81653 10.1696 5.14611 9.97984 4.56565 9.61908C3.98519 9.25832 3.51821 8.7412 3.21829 8.12709C3.16359 8.01769 3.06767 7.9345 2.95163 7.89582C2.8356 7.85714 2.70894 7.86614 2.59954 7.92084C2.49014 7.97554 2.40695 8.07146 2.36827 8.1875C2.32959 8.30354 2.33859 8.43019 2.39329 8.53959C2.75667 9.27086 3.30882 9.89178 3.99263 10.3381C4.67644 10.7844 5.46708 11.04 6.28276 11.0783C7.09845 11.1166 7.90956 10.9363 8.63219 10.556C9.35483 10.1758 9.96275 9.60934 10.3931 8.91534C10.8234 8.22135 11.0605 7.42499 11.0799 6.60863C11.0992 5.79228 10.9001 4.98558 10.5032 4.27197C10.1062 3.55836 9.5258 2.96376 8.822 2.54968C8.11819 2.13559 7.31654 1.91706 6.49996 1.91667Z" fill="#82D3FF"/>
</g>
<defs>
<clipPath id="clip0_65_351">
<rect width="11" height="11" fill="white" transform="translate(1 1)"/>
</clipPath>
</defs>
</svg>
