<svg width="13" height="13" viewBox="0 0 13 13" fill="none" xmlns="http://www.w3.org/2000/svg">
<path d="M13 6.5C13 10.0899 10.0899 13 6.5 13C2.91015 13 0 10.0899 0 6.5C0 2.91015 2.91015 0 6.5 0C10.0899 0 13 2.91015 13 6.5Z" fill="#E4F3FF"/>
<g clip-path="url(#clip0_226_1233)">
<path d="M6.23205 6.04021L7.29187 4.99635C7.33506 4.95397 7.36943 4.90346 7.393 4.84774C7.41657 4.79201 7.42888 4.73217 7.42921 4.67167C7.42953 4.61116 7.41788 4.55119 7.39491 4.49521C7.37194 4.43924 7.33812 4.38836 7.29539 4.34552C7.25302 4.30233 7.20251 4.26796 7.14678 4.24439C7.09106 4.22082 7.03122 4.20852 6.97071 4.20819C6.91021 4.20786 6.85024 4.21952 6.79426 4.24248C6.73828 4.26545 6.68741 4.29928 6.64457 4.342L4.80135 6.1654C4.75939 6.20876 4.7264 6.25998 4.70429 6.31613C4.65784 6.42746 4.65716 6.55262 4.7024 6.66445C4.72391 6.72083 4.75634 6.77241 4.79783 6.81622L6.62123 8.65944C6.66373 8.70241 6.71428 8.73658 6.76999 8.76001C6.8257 8.78344 6.88548 8.79566 6.94591 8.79599C7.00635 8.79632 7.06625 8.78474 7.12221 8.76191C7.17817 8.73909 7.22909 8.70546 7.27205 8.66296C7.31502 8.62046 7.34919 8.56991 7.37262 8.5142C7.39605 8.45849 7.40827 8.39871 7.4086 8.33828C7.40893 8.27784 7.39735 8.21793 7.37452 8.16197C7.3517 8.10601 7.31807 8.0551 7.27557 8.01213L6.22709 6.95687L10.6224 6.98063C10.744 6.98129 10.8608 6.93363 10.9473 6.84814C11.0337 6.76265 11.0826 6.64634 11.0832 6.52478C11.0839 6.40322 11.0362 6.28639 10.9508 6.19997C10.8653 6.11355 10.749 6.06463 10.6274 6.06398L6.23205 6.04021ZM6.47521 11.0833C7.33176 11.0917 8.17353 10.86 8.90506 10.4143C9.63659 9.96864 10.2286 9.32689 10.6139 8.56186C10.6692 8.45275 10.6789 8.32615 10.6408 8.20991C10.6028 8.09366 10.5201 7.99729 10.411 7.942C10.3019 7.88671 10.1753 7.87702 10.059 7.91508C9.9428 7.95313 9.84643 8.0358 9.79114 8.1449C9.49823 8.72847 9.05479 9.22324 8.50666 9.57807C7.95853 9.9329 7.32559 10.1349 6.67325 10.1633C6.02091 10.1916 5.37284 10.0452 4.796 9.73927C4.21916 9.43331 3.73449 8.97887 3.39208 8.4229C3.04966 7.86693 2.86192 7.22961 2.84825 6.57679C2.83458 5.92398 2.99549 5.27936 3.31434 4.70955C3.63319 4.13974 4.09842 3.66541 4.66194 3.33558C5.22547 3.00574 5.86685 2.83238 6.51981 2.83339C7.20324 2.83412 7.87262 3.02754 8.45113 3.39143C9.02963 3.75533 9.49381 4.27496 9.7904 4.89068C9.84451 5.00038 9.93998 5.08409 10.0558 5.12339C10.1716 5.1627 10.2983 5.15438 10.408 5.10028C10.5177 5.04617 10.6014 4.9507 10.6407 4.83487C10.68 4.71904 10.6717 4.59235 10.6176 4.48265C10.2582 3.74942 9.70941 3.12553 9.02802 2.67551C8.34663 2.22549 7.55739 1.96568 6.74193 1.92296C5.92646 1.88024 5.11439 2.05615 4.38971 2.43251C3.66503 2.80887 3.05405 3.372 2.61998 4.06366C2.18591 4.75531 1.94451 5.55038 1.92074 6.36662C1.89698 7.18286 2.09171 7.99062 2.4848 8.70636C2.87789 9.42211 3.45507 10.0198 4.15662 10.4377C4.85818 10.8556 5.65864 11.0785 6.47521 11.0833Z" fill="#82D3FF"/>
</g>
<defs>
<clipPath id="clip0_226_1233">
<rect width="11" height="11" fill="white" transform="translate(11.9702 12.0297) rotate(-179.69)"/>
</clipPath>
</defs>
</svg>
