<svg width="399" height="172" viewBox="0 0 399 172" fill="none" xmlns="http://www.w3.org/2000/svg">
<path d="M0 10C0 4.47716 4.47715 0 10 0H389C394.523 0 399 4.47715 399 10V162C399 167.523 394.523 172 389 172H10C4.47716 172 0 167.523 0 162V10Z" fill="#FFF5E1"/>
<mask id="mask0_89_883" style="mask-type:alpha" maskUnits="userSpaceOnUse" x="0" y="1" width="399" height="171">
<path d="M0 11C0 5.47716 4.47715 1 10 1H389C394.523 1 399 5.47715 399 11V162C399 167.523 394.523 172 389 172H10C4.47716 172 0 167.523 0 162V11Z" fill="#FFF5E1"/>
</mask>
<g mask="url(#mask0_89_883)">
<path d="M361 126C287.151 135.803 251.708 122.611 232.353 56.7636C212.998 -9.08424 276.119 -40.5894 314.613 -37.6601C349.025 -35.0415 425.294 -3.36558 430.827 26.5528C436.36 56.4712 417.5 118.5 361 126Z" fill="#FEEBC8"/>
<path d="M233.619 85.3541C272.17 155.551 150.983 182.945 72.1673 188.942C71.6471 188.982 71.1382 188.979 70.6184 188.935C18.82 184.49 -37.1779 160.917 -19.7557 100.848C-2.24611 40.4766 53.5923 6.21992 107.151 21.7134C166.087 38.7625 202.309 22.3067 233.619 85.3541Z" fill="#FEEBC8"/>
</g>
</svg>
