<svg width="16" height="14" viewBox="0 0 16 14" fill="none" xmlns="http://www.w3.org/2000/svg">
<path d="M7.02065 0.364486C5.39924 0.770403 4.01864 2.26981 3.69757 3.95975C3.57717 4.63904 3.64138 5.61656 3.86613 6.29585C4.08286 6.97514 4.64473 7.84496 5.13436 8.28401C5.58386 8.68993 6.61931 9.23668 6.78787 9.1704C6.88419 9.12898 6.9163 8.99644 6.9163 8.64023V8.15975L6.53904 8.18461C6.00125 8.21774 5.6561 8.01064 5.38319 7.50532C5.26279 7.28165 5.07817 7.02484 4.95777 6.93372C4.67684 6.72662 4.69289 6.62721 4.99791 6.62721C5.19858 6.62721 5.33503 6.71833 5.67215 7.08283C6.04941 7.48875 6.13771 7.53845 6.41864 7.53845C6.84406 7.53845 6.99657 7.47218 6.99657 7.28993C6.99657 7.19881 7.0367 7.10768 7.07684 7.08283C7.2454 6.97514 7.14105 6.90058 6.6755 6.75975C6.05744 6.58579 5.5357 6.1136 5.35911 5.57514C5.15844 4.9704 5.19055 4.15857 5.43135 3.68638C5.58386 3.39644 5.62399 3.22247 5.58386 3.03194C5.55978 2.88283 5.57583 2.60117 5.63202 2.41064C5.72031 2.07099 5.72834 2.06271 5.97717 2.1207C6.12165 2.14555 6.40259 2.26153 6.60326 2.36922C6.94841 2.54318 7.0046 2.55147 7.53436 2.46863C7.95175 2.40236 8.24874 2.40236 8.64205 2.46863C9.13971 2.55147 9.1959 2.54318 9.56513 2.35265C9.77383 2.24496 10.0628 2.12898 10.1992 2.10413C10.416 2.05443 10.4481 2.07928 10.5043 2.28638C10.5364 2.41892 10.5604 2.70886 10.5524 2.94082C10.5444 3.23904 10.6006 3.47928 10.7451 3.79407C10.9217 4.17514 10.9457 4.30768 10.9136 4.82958C10.8414 5.9562 10.2635 6.63549 9.20393 6.84259L8.93102 6.8923L9.06747 7.10768C9.17182 7.27336 9.20393 7.5136 9.20393 8.19289C9.21195 9.28638 9.24406 9.31952 10.0146 8.94674C10.7772 8.57395 11.6922 7.62958 12.0534 6.84259C13.0648 4.63904 12.2782 2.02957 10.2394 0.828391C9.38052 0.314781 7.99991 0.124249 7.02065 0.364486Z" fill="white"/>
<path d="M1.86751 9.76785C1.24143 9.93353 0.86417 10.4968 0.767848 11.3998C0.671527 12.3856 0.952464 13.2223 1.49026 13.5537C1.84343 13.769 2.80664 13.8105 3.26417 13.6282L3.6334 13.4874L3.60932 12.485L3.58524 11.4744H2.9431H2.30096L2.27688 11.8223L2.2528 12.1785H2.53373H2.8227V12.5927V13.0069H2.44544C1.98792 12.9986 1.82738 12.8909 1.65882 12.485C1.42604 11.8968 1.5625 10.911 1.9237 10.6377C2.1324 10.4803 2.58992 10.4223 2.95915 10.5051L3.28825 10.5797L3.36852 10.2649C3.44076 9.98324 3.4247 9.92525 3.3043 9.85898C3.10363 9.743 2.18056 9.6933 1.86751 9.76785Z" fill="white"/>
<path d="M7.23743 11.7633V13.6686H7.59863H7.95181L7.97589 12.8651L7.99997 12.0533L8.54579 12.0284L9.08358 12.0036V12.8402V13.6686H9.48492H9.88626V11.7633V9.85799H9.48492H9.08358V10.6036V11.3574L8.54579 11.3325L7.99997 11.3077L7.97589 10.5787L7.95181 9.85799H7.59863H7.23743V11.7633Z" fill="white"/>
<path d="M12.9364 11.7641V13.6694H13.2575C13.4341 13.6694 13.5785 13.6362 13.5785 13.5948C13.5785 13.5451 13.6749 13.57 13.8033 13.6362C14.1003 13.7936 14.7023 13.7854 14.9351 13.6197C15.216 13.4126 15.3444 12.9984 15.3444 12.3274C15.3444 11.6729 15.1919 11.2836 14.8548 11.1013C14.6782 11.0019 14.1324 11.0185 13.8836 11.1345C13.7551 11.1925 13.7391 11.1428 13.7391 10.5297V9.85873H13.3377H12.9364V11.7641ZM14.4936 11.8635C14.6461 12.0871 14.6622 12.7499 14.5177 12.957C14.4454 13.0647 14.3331 13.0978 14.1003 13.0729L13.7792 13.0481L13.7551 12.4351C13.7311 11.7641 13.7712 11.6812 14.1565 11.6812C14.2929 11.6812 14.4214 11.7558 14.4936 11.8635Z" fill="white"/>
<path d="M4.15509 10.0485C4.05877 10.1231 4.01863 10.2391 4.04272 10.4379C4.05877 10.6615 4.11496 10.7444 4.28352 10.8024C4.70894 10.9515 5.01395 10.3882 4.68486 10.0817C4.50827 9.91598 4.34773 9.90769 4.15509 10.0485Z" fill="white"/>
<path d="M5.45547 10.7444C5.43139 11.084 5.40731 11.142 5.25481 11.1669C5.1023 11.1917 5.07019 11.2497 5.07019 11.4816C5.07019 11.7302 5.09427 11.7633 5.27086 11.7633C5.4635 11.7633 5.47153 11.7882 5.47153 12.2769C5.47956 12.9148 5.57588 13.4035 5.74444 13.5692C5.81668 13.6438 6.06551 13.71 6.35447 13.7349L6.83608 13.768V13.4367C6.83608 13.1136 6.82002 13.097 6.57922 13.0722L6.31434 13.0473L6.29026 12.4012L6.26618 11.7633H6.55514C6.82805 11.7633 6.83608 11.755 6.83608 11.4319C6.83608 11.1089 6.82805 11.1006 6.55514 11.1006C6.2742 11.1006 6.2742 11.1006 6.2742 10.7278V10.355H5.88089H5.47956L5.45547 10.7444Z" fill="white"/>
<path d="M4.02673 12.3846V13.6686H4.41202H4.78928V12.3846V11.1006H4.41202H4.02673V12.3846Z" fill="white"/>
<path d="M10.2876 12.2115C10.2876 13.1642 10.3117 13.3464 10.4321 13.5038C10.6327 13.7524 11.323 13.8269 11.7565 13.6447C11.917 13.5701 12.0535 13.5453 12.0535 13.595C12.0535 13.6364 12.1819 13.6695 12.3344 13.6695H12.6154V12.3855V11.1015H12.214H11.8127V12.0458C11.8127 12.6009 11.7806 13.0151 11.7324 13.0482C11.5799 13.1476 11.1545 13.1145 11.0822 12.9985C11.0421 12.9322 11.01 12.4849 11.01 11.9879V11.1015H10.6488H10.2876V12.2115Z" fill="white"/>
</svg>
