<svg xmlns="http://www.w3.org/2000/svg" viewBox="0 0 512 512"><title>Artboard 156</title><g id="Baguette"><path d="M423.61849,21.33333C356.57161,21.33333,256,64,149.33333,170.66667L128,192c0,64-42.66667,64-42.66667,64-36.97829,56.29476-64,114.88107-64,170.66667,0,0,0,64,67.04818,64,67.04688,0,142.22135-42.66667,231.61849-128,55.8724-53.33334,170.66667-192,170.66667-277.33334C490.66667,85.33333,490.66667,21.33333,423.61849,21.33333Z" style="fill:#ad6143"/><path d="M376.33073,71.66927C348.47526,43.8151,252.91927,94.21094,162.89844,184.23177c-15.34115,15.34115-29.42578,30.82813-42.27344,46.12891a46.29707,46.29707,0,0,1-14.70052,18.13281C53.39714,315.91536,29.11719,376.444,50.33594,397.66276c27.85547,27.85417,123.41146-22.54167,213.43229-112.5612C353.78906,195.08073,404.1849,99.52344,376.33073,71.66927Z" style="fill:#a34e2d"/><path d="M88.375,490.66667V448c54.14583,0,120.27083-38,202.16667-116.20833C356.29167,269.04167,448,144.91667,448,85.33333h42.66667c0,85.625-117.20834,226.29167-170.66667,277.33334C229.79167,448.79167,154.02083,490.66667,88.375,490.66667Z" style="fill:#c28a73"/><path d="M319.04167,197.375l-20.70834-5.04167c1.02084-4.22916-.14583-7.83333-3.58333-11.0625-4.20833-3.95833-16.04167-10.60416-47.89583-10.60416-23.35417,0-51.58334,3.66666-79.5,10.35416l-4.95834-20.75c29.47917-7.0625,59.47917-10.9375,84.45834-10.9375,30.3125,0,50.77083,5.35417,62.5,16.39584C318.375,174.1875,321.89583,185.72917,319.04167,197.375Z" style="fill:#993b17"/><path d="M116.5625,277.1875a188.25256,188.25256,0,0,1-25.66667-1.60417l2.95834-21.125c28.8125,3.95834,75.35416-1.0625,117.4375-12.97916l5.79166,20.54166C182.9375,271.66667,146.29167,277.1875,116.5625,277.1875Z" style="fill:#ad6143"/><path d="M151.3737,185.1849c-8.27474,2.33984-16.07422,4.84765-23.401,7.46224-.21745,45.17708-21.76954,58.10546-34.14323,61.8125,28.45182,3.90755,73.17317-.45834,117.46354-12.97917,62.63672-17.70833,100-44.66537,83.45443-60.21094S214.01172,167.47656,151.3737,185.1849Z" style="fill:#fdcf6d"/><path d="M141.75,210.45833l-6.70833-20.25c5.22916-1.72916,10.6875-3.4375,16.35416-5.02083,32.625-9.22917,67.41667-14.52083,95.45834-14.52083,13.6875,0,38.10416,1.375,47.89583,10.60416L280.125,196.8125h0c-.04167,0-7.25-4.8125-33.27083-4.8125-26.16667,0-58.85417,5-89.6875,13.72917C151.8125,207.22917,146.6875,208.8125,141.75,210.45833Z" style="fill:#fdab00"/><path d="M62.04167,350.47917l-10.83334-18.375c22.8125-13.41667,55.3125-23.1875,78.125-27.875,17.91667-3.64584,35.0625-5.5625,49.625-5.5625,24.375,0,40.47917,5.20833,49.1875,15.9375L211.5625,328.0625C209.60417,325.625,202.5,320,178.95833,320c-13.16666,0-28.83333,1.77083-45.35416,5.14583C113.45833,329.27083,82.60417,338.375,62.04167,350.47917Z" style="fill:#993b17"/><path d="M77.04167,405.33333c-24.375,0-40.47917-5.20833-49.1875-15.9375L44.4375,375.9375C46.39583,378.375,53.5,384,77.04167,384c13.16666,0,28.83333-1.77083,45.35416-5.14583,40.9375-8.375,87.27084-27.6875,90.75-44.25l20.875,4.375c-8.25,39.375-97.22916,58.70833-107.35416,60.79166C108.75,403.41667,91.60417,405.33333,77.04167,405.33333Z" style="fill:#b7745a"/><ellipse cx="128" cy="352" rx="87.64521" ry="24.96612" transform="translate(-80.15858 40.6192) rotate(-13.77969)" style="fill:#fdcf6d"/><path d="M62.8125,376.14583,45.29167,364c8.10416-11.72917,41.83333-29.33333,88.33333-38.85417C150.10417,321.79167,165.77083,320,178.95833,320c15.33334,0,23.45834,2.35417,27.58334,4.3125l-9.20834,19.25c-.1875-.08333-4.8125-2.22917-18.375-2.22917-11.77083,0-25.95833,1.625-41.04166,4.72917C90.66667,355.70833,65.6875,372.3125,62.8125,376.14583Z" style="fill:#fdab00"/><path d="M447.35417,61.64583l-20.875-4.375a7.47763,7.47763,0,0,0-1.5625-6.52083c-2.9375-3.625-9.9375-6.25-19.6875-7.41667l2.5-21.16666c15.97916,1.875,27,6.8125,33.72916,15.10416A28.61782,28.61782,0,0,1,447.35417,61.64583Z" style="fill:#a34e2d"/><path d="M290.375,128c-24.375,0-40.47917-5.20833-49.1875-15.9375l16.58333-13.45833c1.95834,2.4375,9.0625,8.0625,32.60417,8.0625,13.16667,0,28.83333-1.77084,45.35417-5.14584l4.25,20.91667C322.08333,126.08333,304.9375,128,290.375,128Z" style="fill:#ad6143"/><ellipse cx="341.33333" cy="74.66667" rx="87.64521" ry="24.96612" transform="translate(-7.9608 83.45089) rotate(-13.77969)" style="fill:#fdcf6d"/><path d="M276.14583,98.8125,258.625,86.66667c8.10417-11.72917,41.83333-29.33334,88.33333-38.85417,16.47917-3.35417,32.14584-5.14583,45.33334-5.14583,15.33333,0,23.45833,2.35416,27.58333,4.3125l-9.20833,19.25c-.1875-.08334-4.8125-2.22917-18.375-2.22917-11.77084,0-25.95834,1.625-41.04167,4.72917C304,78.375,279.02083,94.97917,276.14583,98.8125Z" style="fill:#fdab00"/><ellipse cx="373.33333" cy="138.66667" rx="32" ry="10.66667" style="fill:#a34e2d"/><ellipse cx="309.33333" cy="256" rx="32" ry="21.33333" style="fill:#a34e2d"/><ellipse cx="74.66667" cy="448" rx="32" ry="21.33333" style="fill:#c28a73"/><circle cx="448" cy="85.33333" r="21.33333" style="fill:#c28a73"/><ellipse cx="416" cy="170.66667" rx="32" ry="21.33333" style="fill:#a34e2d"/><ellipse cx="277.33333" cy="330.66667" rx="21.33333" ry="10.66667" style="fill:#a34e2d"/><ellipse cx="106.66667" cy="405.33333" rx="42.66667" ry="21.33333" style="fill:#b7745a"/><ellipse cx="256" cy="266.66667" rx="21.33333" ry="10.66667" style="fill:#993b17"/><ellipse cx="202.66667" cy="298.66667" rx="32" ry="21.33333" style="fill:#993b17"/><ellipse cx="320" cy="160" rx="21.33333" ry="10.66667" style="fill:#993b17"/><ellipse cx="341.33333" cy="202.66667" rx="21.33333" ry="10.66667" style="fill:#a34e2d"/></g></svg>