<svg xmlns="http://www.w3.org/2000/svg" viewBox="0 0 512 512"><title>Artboard 114</title><g id="Ricebowl"><rect x="273.98711" y="144.91506" width="241.35911" height="30.16989" transform="translate(2.45811 325.93439) rotate(-45)" style="fill:#fdab00"/><path d="M43.55556,256s-.88889-42.66667,41.77777-42.66667c0,0,0-42.66666,42.66667-42.66666,0,0,0-42.66667,42.66667-42.66667,0,0,0-42.66667,42.66666-42.66667,0,0,0-42.66666,42.66667-42.66666s42.66667,42.66666,42.66667,42.66666,42.66666,0,42.66666,42.66667c0,0,42.66667,0,42.66667,42.66667,0,0,42.66667,0,42.66667,42.66666,0,0,41.77777,0,41.77777,42.66667l.88889,21.33333H42.66667Z" style="fill:#eae2ce"/><circle cx="362.66667" cy="256" r="42.66667" style="fill:#f3eee3"/><circle cx="277.33333" cy="128" r="42.66667" style="fill:#f3eee3"/><circle cx="170.66667" cy="149.33333" r="21.33333" style="fill:#f3eee3"/><circle cx="117.33333" cy="245.33333" r="32" style="fill:#f3eee3"/><circle cx="149.33333" cy="213.33333" r="21.33333" style="fill:#f3eee3"/><path d="M256,256H21.33333c0,170.66667,128,192,128,192,0,21.33333,21.33334,42.66667,42.66667,42.66667H320c21.33333,0,42.66667-21.33334,42.66667-42.66667,0,0,128-21.33333,128-192Z" style="fill:#993b17"/><path d="M320,490.66667H256V469.33333h64c9.57292,0,21.33333-11.76041,21.33333-21.33333l.0625-17.97917,17.66667-3.05208c4.20833-.71875,100.07292-18.64583,109.52083-149.63542H448V256h42.85417l-.375,11.02083C485.20833,425.22917,367.6875,447.13542,362.6875,447.98958l-.02083.05209C362.66667,469.53125,341.53125,490.66667,320,490.66667Z" style="fill:#8b2800"/><path d="M256,448s128-21.33333,128-192H21.33333c0,170.66667,128,192,128,192,0,21.33333,21.33334,42.66667,42.66667,42.66667h21.33333C234.66667,490.66667,256,469.33333,256,448Z" style="fill:#a34e2d"/><path d="M152.63542,426.92708C143.02083,425.125,58.27083,406.01042,44.54167,289.25l21.1875-2.5c11.94791,101.60417,82.78125,117.69792,90.82291,119.19792Z" style="fill:#b7745a"/><rect x="231.32044" y="102.24839" width="241.35911" height="30.16989" transform="translate(20.13122 283.26772) rotate(-45)" style="fill:#fdbc34"/><rect x="170.66667" y="447.99999" width="85.33333" height="21.33333" style="fill:#993b17"/></g></svg>