<?xml version="1.0" ?><svg viewBox="0 0 64 64" xmlns="http://www.w3.org/2000/svg"><defs><style>.cls-1{fill:#fccb7e;}.cls-2{fill:#fdd598;}.cls-3{fill:#8cc63f;}.cls-4{fill:#a3d165;}.cls-5{fill:#603813;}.cls-6{fill:#8a6d52;}</style></defs><title/><g data-name="Layer 25" id="Layer_25"><path class="cls-1" d="M32,8A32.036,32.036,0,0,0,0,40V55a1,1,0,0,0,1,1H63a1,1,0,0,0,1-1V40A32.036,32.036,0,0,0,32,8Z"/><path class="cls-2" d="M32,8c-.335,0-.667.015-1,.025A32.032,32.032,0,0,1,62,40V55a1,1,0,0,1-1,1h2a1,1,0,0,0,1-1V40A32.036,32.036,0,0,0,32,8Z"/><path class="cls-3" d="M64,41a4.007,4.007,0,0,0-3.15-3.909A4.005,4.005,0,0,0,57,32h-.027l-.078-.1A3.942,3.942,0,0,0,57,31a4,4,0,0,0-4-4,4,4,0,0,0-5.09-3.848A4.007,4.007,0,0,0,44,20a3.948,3.948,0,0,0-2.224.679A4.008,4.008,0,0,0,38,18a3.962,3.962,0,0,0-2.573.938,4,4,0,0,0-6.854,0A3.962,3.962,0,0,0,26,18a4.008,4.008,0,0,0-3.776,2.679A3.948,3.948,0,0,0,20,20a4.007,4.007,0,0,0-3.91,3.152A4,4,0,0,0,11,27a4,4,0,0,0-4,4,3.942,3.942,0,0,0,.105.9l-.078.1A4.005,4.005,0,0,0,3.15,37.091,4.007,4.007,0,0,0,0,41a3.937,3.937,0,0,0,1.09,2.73A31.911,31.911,0,0,0,0,52v3a1,1,0,0,0,1,1H63a1,1,0,0,0,1-1V52a31.911,31.911,0,0,0-1.09-8.27A3.937,3.937,0,0,0,64,41Z"/><path class="cls-4" d="M64,41a4.007,4.007,0,0,0-3.15-3.909A4.005,4.005,0,0,0,57,32h-.027l-.078-.1A3.942,3.942,0,0,0,57,31a4,4,0,0,0-4-4,4,4,0,0,0-5.09-3.848A4.007,4.007,0,0,0,44,20a3.945,3.945,0,0,0-1.5.3,4.009,4.009,0,0,1,2.409,2.849A4,4,0,0,1,50,27a4,4,0,0,1,4,4,3.942,3.942,0,0,1-.1.9l.078.1H54a4.005,4.005,0,0,1,3.85,5.091A4.007,4.007,0,0,1,61,41a3.937,3.937,0,0,1-1.09,2.73A31.911,31.911,0,0,1,61,52v3a1,1,0,0,1-1,1h3a1,1,0,0,0,1-1V52a31.911,31.911,0,0,0-1.09-8.27A3.937,3.937,0,0,0,64,41Z"/><path class="cls-5" d="M32,24A31.838,31.838,0,0,0,.021,54.969,1,1,0,0,0,1.02,56H62.98a1,1,0,0,0,1-1.031A31.838,31.838,0,0,0,32,24Z"/><path class="cls-6" d="M32,24c-.335,0-.667.014-1,.024A31.824,31.824,0,0,1,61.979,54.969a1,1,0,0,1-1,1.031h2a1,1,0,0,0,1-1.031A31.838,31.838,0,0,0,32,24Z"/><path class="cls-1" d="M32,28A31.855,31.855,0,0,0,.413,54.84,1,1,0,0,0,1.4,56H62.6a1,1,0,0,0,.987-1.16A31.855,31.855,0,0,0,32,28Z"/><path class="cls-2" d="M32,28c-.335,0-.667.012-1,.022A31.842,31.842,0,0,1,61.587,54.84,1,1,0,0,1,60.6,56h2a1,1,0,0,0,.987-1.16A31.855,31.855,0,0,0,32,28Z"/></g></svg>