<svg xmlns="http://www.w3.org/2000/svg" width="34.881" height="48.003" viewBox="0 0 34.881 48.003">
  <g>
    <path d="M12.739,9.059a14.132,14.132,0,0,1,3.415-3.522L15.281,4.31a14.991,14.991,0,0,0-1.917,1.626,3.514,3.514,0,0,1-.4-1.7l-1.5-.146a5.464,5.464,0,0,0,.831,3.052A19.407,19.407,0,0,0,8.86,13.7,22.9,22.9,0,0,1,6.21,7.587,5.861,5.861,0,0,0,8.437,5.265L7.1,4.581A4.2,4.2,0,0,1,5.867,6.006,14.712,14.712,0,0,1,5.967.33L4.5,0A15.534,15.534,0,0,0,4.13,3.506,3.332,3.332,0,0,1,2.069,2.045l-1.28.791a4.927,4.927,0,0,0,3.42,2.226,19.653,19.653,0,0,0,.875,4.126,3.067,3.067,0,0,1-2.358-.209l-.754,1.3a4.18,4.18,0,0,0,2.118.557A5.215,5.215,0,0,0,5.6,10.607a23.36,23.36,0,0,0,3,5.381l.59-.468.743.123A18.209,18.209,0,0,1,11.9,10.4a5,5,0,0,0,1.564.232,7.554,7.554,0,0,0,2.078-.311l-.412-1.448A5.206,5.206,0,0,1,12.739,9.059Z" fill="#3daa9d"/>
    <path d="M23.716,23.739c-3.678-4.314,4.7-8.936,11.165-3.371C34.881,20.368,26.59,28.715,23.716,23.739Z" fill="#79ccb8"/>
    <path d="M30.957,19.884c-.291.027-6.8.729-9,5.5a6.75,6.75,0,0,0-1.778-.847.564.564,0,0,0-.281,1.093,4.62,4.62,0,0,1,3.438,4.657.565.565,0,0,0,.539.59H23.9a.563.563,0,0,0,.563-.537,5.33,5.33,0,0,0-1.607-4.229c1.807-4.422,8.143-5.1,8.208-5.109a.563.563,0,0,0,.507-.615A.556.556,0,0,0,30.957,19.884Z" fill="#3daa9d"/>
    <path d="M30.876,37.957c-.192-1.953.016-6.286,3.835-5.407a.877.877,0,0,0,.17.009C32.233,27.34,23.9,30.32,23.9,30.32s-11.435-4.455-12.2,6.149C11.62,53,23.9,46.847,23.9,46.847s7.795,4.477,10.88-4.193c-.023,0-.045,0-.068,0C31.872,43.105,31.148,40.735,30.876,37.957Z" fill="#ffbd66"/>
    <path d="M19.253,39.932c.2,2.6,1.314,4.813-.654,5.5-1.878.653-3.819-2.089-4.5-5.414-.523-2.552.593-4.913,2.408-5.258S19.054,37.328,19.253,39.932Z" fill="#fddc85"/>
    <path d="M11.274,27.893a.753.753,0,0,1,.753-.753h4.356l1.882-6.77a2.7,2.7,0,0,0-1.194-3.023,15.484,15.484,0,0,0-15.779,0A2.7,2.7,0,0,0,.1,20.37l.328,1.177H6.2a.753.753,0,1,1,0,1.506H.845l2.363,8.5H7.566a.753.753,0,0,1,0,1.506H3.626l3.782,13.6a1.842,1.842,0,0,0,3.549,0l2.188-7.867H10.016a.753.753,0,0,1,0-1.505h3.547l2.4-8.635H12.026A.753.753,0,0,1,11.274,27.893Z" fill="#f87670"/>
    <path d="M6.955,22.3a.753.753,0,0,0-.753-.753H.427l.419,1.506H6.2A.753.753,0,0,0,6.955,22.3Z" fill="#db5743"/>
    <path d="M12.027,27.14a.753.753,0,0,0,0,1.506h3.938l.418-1.506Z" fill="#db5743"/>
    <path d="M7.567,31.551H3.209l.418,1.506h3.94a.753.753,0,0,0,0-1.506Z" fill="#db5743"/>
    <path d="M9.265,38.033a.752.752,0,0,0,.752.753h3.129l.418-1.505H10.017A.752.752,0,0,0,9.265,38.033Z" fill="#db5743"/>
  </g>
</svg>
