<svg xmlns="http://www.w3.org/2000/svg" viewBox="0 0 512 512"><title>Artboard 121</title><g id="Cupcake"><path d="M469.33333,256C448,362.66667,384,469.33333,384,469.33333s-21.33333,21.33334-128,21.33334-128-21.33334-128-21.33334S64,362.66667,42.66667,256Z" style="fill:#c82e25"/><path d="M300.04167,489.25l-2.9375-42.5625c30.66666-2.125,47.70833-6.34375,55.85416-9.02083,11.73959-21.11459,41.26042-77.02084,61.10417-139H341.33333V256H470.13542l-7,26.73958c-21.86459,83.47917-64.33334,160.89584-76.82292,182.64584l-3.32292,5.77083-6.01041,2.85417C367.86458,478.34375,345.76042,486.09375,300.04167,489.25Z" style="fill:#af0a00"/><path d="M248.168,490.56771c.02213-.00261.07943-.07292.10156-.07292C281.39062,444.23047,328.00781,362.60417,341.33333,256H42.66667C64,362.66667,128,469.33333,128,469.33333S148.48568,489.52474,248.168,490.56771Z" style="fill:#d2514a"/><path d="M256,405.33333c-43.72917,0-80.85417-16.0625-104.3125-44.59375A138.15318,138.15318,0,0,1,128,362.66667V320c10.10417,0,18.69792-1.21875,25.54167-3.625l16.38541-5.76042,8.95834,14.875C187.25,339.375,208.40625,362.66667,256,362.66667c37.4375,0,58.45833-14.63542,69.5-26.91667l31.72917,28.54167C333.41667,390.76042,297.46875,405.33333,256,405.33333Z" style="fill:#c82e25"/><path d="M384,362.66667c-14.92708,0-28.28125-2.03125-39.6875-6.04167l14.14583-40.25c12.94792,4.55208,35.21875,5.92708,48.625-2l21.72917,36.70833C415.83333,358.77083,400.75,362.66667,384,362.66667Z" style="fill:#af0a00"/><path d="M448,192S426.66667,21.33333,256,21.33333,64,192,64,192s-42.66667,0-42.66667,42.66667,64,42.66666,64,42.66666S85.33333,320,128,320s42.66667-21.33333,42.66667-21.33333c0,21.33333,21.33333,64,85.33333,64s85.33333-42.66667,85.33333-64c0,0,0,21.33333,42.66667,21.33333s42.66667-42.66667,42.66667-42.66667,64,0,64-42.66666S448,192,448,192Z" style="fill:#fdcf6d"/><path d="M384,298.66667c18.34375,0,21.23958-13.44792,21.33333-21.45834l.04167-21.14583L426.61458,256c.39584,0,42.71875-1.29167,42.71875-21.33333,0-18.34375-13.44791-21.23959-21.45833-21.33334L448.125,192c21.17708.25,42.54167,13.54167,42.54167,42.66667,0,33.73958-41.85417,42.65625-64,42.66666v.02084C426.41667,298.63542,413.125,320,384,320Z" style="fill:#fdbc34"/><path d="M151.125,464.58333c-42.96875-64.44791-64.35417-127.875-65.23958-130.54166l20.22916-6.75c.20834.625,21.44792,63.48958,62.76042,125.45833Z" style="fill:#d96c66"/><path d="M192,85.33333C85.33333,85.33333,64,192,64,192s-42.66667,0-42.66667,42.66667,64,42.66666,64,42.66666S85.33333,320,128,320s42.66667-21.33333,42.66667-21.33333c0,21.33333,21.33333,64,85.33333,64C341.33333,362.66667,362.66667,85.33333,192,85.33333Z" style="fill:#fee3aa"/><path d="M256,362.66667c-54.8125,0-78.10417-31.16667-83.85417-53.33334h-6.5C159.61458,315.32292,147.76042,320,128,320c-29.125,0-42.41667-21.39583-42.66667-42.60417l-.07291-.0625c-22.05209,0-63.92709-8.91666-63.92709-42.66666,0-29.125,21.39584-42.41667,42.60417-42.66667l8.61458-.09375.22917,21.33333-8.60417.09375c-8.03125.09375-21.51041,2.98959-21.51041,21.33334,0,20.04166,42.32291,21.33333,42.75,21.33333l21,.1875.25,20.95833c.09375,8.04167,2.98958,21.52084,21.33333,21.52084,13.90625,0,19.84375-2.67709,21.80208-3.86459L150.82292,288H192v10.66667c0,9.01041,10.86458,42.66666,64,42.66666Z" style="fill:#fdcf6d"/><circle cx="213.33333" cy="85.33333" r="21.33333" style="fill:#993b17"/><circle cx="320" cy="64" r="21.33333" style="fill:#993b17"/><circle cx="277.33333" cy="234.66667" r="21.33333" style="fill:#ad6143"/><circle cx="384" cy="149.33333" r="21.33333" style="fill:#993b17"/><circle cx="149.33333" cy="170.66667" r="21.33333" style="fill:#ad6143"/><circle cx="288" cy="138.66667" r="21.33333" style="fill:#fdcf6d"/><circle cx="320" cy="149.33333" r="21.33333" style="fill:#fdcf6d"/><circle cx="224" cy="181.33333" r="10.66667" style="fill:#fdcf6d"/><circle cx="426.66667" cy="256" r="21.33333" style="fill:#fdbc34"/><circle cx="298.66667" cy="298.66667" r="21.33333" style="fill:#fdcf6d"/><circle cx="362.66667" cy="234.66667" r="21.33333" style="fill:#fdbc34"/><circle cx="160" cy="288" r="10.66667" style="fill:#fdcf6d"/><circle cx="213.33333" cy="256" r="21.33333" style="fill:#fdcf6d"/><circle cx="106.66667" cy="128" r="21.33333" style="fill:#fdcf6d"/><circle cx="160" cy="96" r="10.66667" style="fill:#fdcf6d"/></g></svg>