<svg xmlns="http://www.w3.org/2000/svg" viewBox="0 0 512 512"><title>Artboard 105</title><g id="Pizza"><path d="M21.33333,490.66667,490.66667,341.33333V341.333c0-176.73094-143.26874-319.99968-319.99968-319.99968h-.00032Z" style="fill:#f59707"/><path d="M266.66667,234.64583a52.97808,52.97808,0,0,1-37.70834-15.60416l15.08334-15.08334c12.08333,12.0625,33.20833,12.0625,45.25,0a32.03874,32.03874,0,0,0,0-45.25L304.375,143.625a53.3125,53.3125,0,0,1-37.70833,91.02083Z" style="fill:#ef7f00"/><rect x="43.92247" y="370.51461" width="435.25923" height="42.6687" transform="translate(-106.34835 97.56276) rotate(-17.62104)" style="fill:#e76400"/><path d="M405.33333,341.33333c0-129.39583-105.27083-234.66666-234.66666-234.66666a42.32448,42.32448,0,0,1-24.6237-7.94532L132.8724,140.11328a84.29153,84.29153,0,0,0,37.79427,9.22c105.875,0,192,86.13542,192,192a84.27311,84.27311,0,0,0,9.22005,37.793L413.27734,365.957A42.31739,42.31739,0,0,1,405.33333,341.33333Z" style="fill:#e76400"/><path d="M170.66667,21.33333a42.66667,42.66667,0,0,0,0,85.33334c129.60286,0,234.66666,105.0638,234.66666,234.66666a42.66667,42.66667,0,0,0,85.33334,0C490.66667,164.60156,347.39844,21.33333,170.66667,21.33333Z" style="fill:#fdcf6d"/><circle cx="448" cy="341.33333" r="42.66667" style="fill:#fdbc34"/><circle cx="448" cy="341.33333" r="21.33333" style="fill:#fdab00"/><path d="M160,192V149.33333A10.66667,10.66667,0,1,0,160,128V85.33333A53.33333,53.33333,0,0,1,160,192Z" style="fill:#c82e25"/><path d="M117.33333,341.33333a53.33333,53.33333,0,0,1,0-106.66666v42.66666a10.66667,10.66667,0,0,0,0,21.33334Z" style="fill:#c82e25"/><path d="M330.66667,298.66667a53.38943,53.38943,0,0,1-53.33334-53.33334H320a10.66667,10.66667,0,1,0,21.33333,0H384A53.38943,53.38943,0,0,1,330.66667,298.66667Z" style="fill:#c82e25"/><path d="M192,341.3125a63.55767,63.55767,0,0,1-45.25-18.72917L161.83333,307.5c16.08334,16.08333,44.25,16.08333,60.33334,0a42.70148,42.70148,0,0,0,0-60.33333L237.25,232.08333A63.97917,63.97917,0,0,1,192,341.3125Z" style="fill:#ef7f00"/><circle cx="192" cy="277.33333" r="42.66667" style="fill:#8b2800"/><circle cx="266.66667" cy="352" r="32" style="fill:#8b2800"/><circle cx="85.33333" cy="405.33333" r="21.33333" style="fill:#8b2800"/><circle cx="266.66667" cy="181.33333" r="32" style="fill:#8b2800"/><path d="M405.97917,261.17708c-.1875-.72916-21.04167-79.13541-98.77084-137.44791-55.75-41.80209-147.52083-47.52084-148.4375-47.57292l2.45834-42.60417c4.27083.25,105.64583,6.59375,171.5625,56.05209,90.35416,67.76041,113.625,157.4375,114.5625,161.21875Z" style="fill:#fee3aa"/></g></svg>